<svg version="1.1" viewBox="0.0 0.0 960.0 540.0" fill="none" stroke="none" stroke-linecap="square" stroke-miterlimit="10" xmlns:xlink="http://www.w3.org/1999/xlink" xmlns="http://www.w3.org/2000/svg"><clipPath id="p.0"><path d="m0 0l960.0 0l0 540.0l-960.0 0l0 -540.0z" clip-rule="nonzero"/></clipPath><g clip-path="url(#p.0)"><path fill="#ffffff" d="m0 0l960.0 0l0 540.0l-960.0 0z" fill-rule="evenodd"/><path fill="#000000" fill-opacity="0.0" d="m89.81365 275.7861l0 0c0 -53.61078 28.251884 -97.07088 63.102364 -97.07088l0 0c16.735779 0 32.786118 10.227081 44.620102 28.431396c11.833984 18.204315 18.482254 42.89467 18.482254 68.63948l0 0c0 53.61075 -28.251892 97.07086 -63.102356 97.07086l0 0c-34.85048 0 -63.102364 -43.460114 -63.102364 -97.07086z" fill-rule="evenodd"/><path stroke="#38761d" stroke-width="1.0" stroke-linejoin="round" stroke-linecap="butt" d="m89.81365 275.7861l0 0c0 -53.61078 28.251884 -97.07088 63.102364 -97.07088l0 0c16.735779 0 32.786118 10.227081 44.620102 28.431396c11.833984 18.204315 18.482254 42.89467 18.482254 68.63948l0 0c0 53.61075 -28.251892 97.07086 -63.102356 97.07086l0 0c-34.85048 0 -63.102364 -43.460114 -63.102364 -97.07086z" fill-rule="evenodd"/><path fill="#000000" fill-opacity="0.0" d="m125.68767 190.38715l54.456696 0l0 40.40944l-54.456696 0z" fill-rule="evenodd"/><path fill="#595959" d="m147.18637 216.86061q-0.78125 0 -1.359375 -0.265625q-0.5625 -0.25 -0.859375 -0.75q-0.28125 -0.5 -0.25 -1.203125l0.140625 -2.1875q0.03125 -0.703125 -0.21875 -1.015625q-0.25 -0.3125 -1.125 -0.3125l-1.453125 0l0 -1.0625l1.453125 0q0.875 0 1.125 -0.3125q0.25 -0.3125 0.21875 -1.015625l-0.140625 -2.1875q-0.03125 -0.71875 0.25 -1.203125q0.296875 -0.5 0.859375 -0.75q0.578125 -0.265625 1.359375 -0.265625l0.59375 0l0 1.0625l-0.59375 0q-0.625 0 -0.96875 0.296875q-0.328125 0.28125 -0.296875 0.859375l0.125 2.1875q0.0625 0.859375 -0.40625 1.375q-0.46875 0.515625 -1.3125 0.515625l0 -0.078125q0.828125 0 1.296875 0.53125q0.484375 0.515625 0.421875 1.375l-0.125 2.1875q-0.03125 0.578125 0.296875 0.859375q0.34375 0.296875 0.96875 0.296875l0.59375 0l0 1.0625l-0.59375 0zm2.4030914 -1.46875l2.59375 -3.765625l-2.4375 -3.5625l1.40625 0l1.453125 2.265625q0.09375 0.140625 0.171875 0.3125q0.09375 0.171875 0.15625 0.28125q0.03125 -0.109375 0.109375 -0.28125q0.09375 -0.171875 0.1875 -0.3125l1.46875 -2.265625l1.40625 0l-2.4375 3.5625l2.578125 3.765625l-1.40625 0l-1.578125 -2.40625q-0.09375 -0.140625 -0.1875 -0.328125q-0.078125 -0.203125 -0.140625 -0.3125q-0.0625 0.109375 -0.15625 0.3125q-0.09375 0.1875 -0.203125 0.328125l-1.59375 2.40625l-1.390625 0zm8.465591 1.46875l0 -1.0625l0.59375 0q0.625 0 0.953125 -0.296875q0.34375 -0.28125 0.3125 -0.859375l-0.140625 -2.1875q-0.046875 -0.859375 0.421875 -1.375q0.484375 -0.53125 1.3125 -0.53125l0 0.078125q-0.84375 0 -1.3125 -0.515625q-0.46875 -0.515625 -0.421875 -1.375l0.140625 -2.1875q0.03125 -0.578125 -0.3125 -0.859375q-0.328125 -0.296875 -0.953125 -0.296875l-0.59375 0l0 -1.0625l0.59375 0q0.78125 0 1.34375 0.265625q0.578125 0.25 0.859375 0.75q0.296875 0.484375 0.265625 1.203125l-0.140625 2.1875q-0.03125 0.703125 0.21875 1.015625q0.25 0.3125 1.109375 0.3125l1.46875 0l0 1.0625l-1.46875 0q-0.84375 0 -1.109375 0.3125q-0.25 0.3125 -0.21875 1.015625l0.140625 2.1875q0.03125 0.703125 -0.265625 1.203125q-0.28125 0.5 -0.859375 0.75q-0.5625 0.265625 -1.34375 0.265625l-0.59375 0z" fill-rule="nonzero"/><path fill="#000000" fill-opacity="0.0" d="m110.821526 226.40027l84.18897 0l0 40.409454l-84.18897 0z" fill-rule="evenodd"/><path fill="#595959" d="m135.19112 252.87373q-0.78125 0 -1.359375 -0.265625q-0.5625 -0.25 -0.859375 -0.75q-0.28125 -0.5 -0.25 -1.203125l0.140625 -2.1875q0.03125 -0.703125 -0.21875 -1.015625q-0.25 -0.3125 -1.125 -0.3125l-1.453125 0l0 -1.0625l1.453125 0q0.875 0 1.125 -0.3125q0.25 -0.3125 0.21875 -1.015625l-0.140625 -2.1875q-0.03125 -0.71875 0.25 -1.203125q0.296875 -0.5 0.859375 -0.75q0.578125 -0.265625 1.359375 -0.265625l0.59375 0l0 1.0625l-0.59375 0q-0.625 0 -0.96875 0.296875q-0.328125 0.28125 -0.296875 0.859375l0.125 2.1875q0.0625 0.859375 -0.40625 1.375q-0.46875 0.515625 -1.3125 0.515625l0 -0.078125q0.828125 0 1.296875 0.53125q0.484375 0.515625 0.421875 1.375l-0.125 2.1875q-0.03125 0.578125 0.296875 0.859375q0.34375 0.296875 0.96875 0.296875l0.59375 0l0 1.0625l-0.59375 0zm2.4030914 -1.46875l2.59375 -3.765625l-2.4375 -3.5625l1.40625 0l1.453125 2.265625q0.09375 0.140625 0.171875 0.3125q0.09375 0.171875 0.15625 0.28125q0.03125 -0.109375 0.109375 -0.28125q0.09375 -0.171875 0.1875 -0.3125l1.46875 -2.265625l1.40625 0l-2.4375 3.5625l2.578125 3.765625l-1.40625 0l-1.578125 -2.40625q-0.09375 -0.140625 -0.1875 -0.328125q-0.078125 -0.203125 -0.140625 -0.3125q-0.0625 0.109375 -0.15625 0.3125q-0.09375 0.1875 -0.203125 0.328125l-1.59375 2.40625l-1.390625 0zm9.528091 2.125l1.0625 -4.140625l1.734375 0l-1.734375 4.140625l-1.0625 0zm16.165558 0.28125l1.078125 -2.859375l-2.71875 -6.875l1.328125 0l1.703125 4.53125q0.09375 0.21875 0.171875 0.53125q0.09375 0.3125 0.140625 0.53125q0.046875 -0.21875 0.125 -0.53125q0.09375 -0.3125 0.171875 -0.53125l1.59375 -4.53125l1.296875 0l-3.609375 9.734375l-1.28125 0zm6.7624664 -0.9375l0 -1.0625l0.59375 0q0.625 0 0.953125 -0.296875q0.34375 -0.28125 0.3125 -0.859375l-0.140625 -2.1875q-0.046875 -0.859375 0.421875 -1.375q0.484375 -0.53125 1.3125 -0.53125l0 0.078125q-0.84375 0 -1.3125 -0.515625q-0.46875 -0.515625 -0.421875 -1.375l0.140625 -2.1875q0.03125 -0.578125 -0.3125 -0.859375q-0.328125 -0.296875 -0.953125 -0.296875l-0.59375 0l0 -1.0625l0.59375 0q0.78125 0 1.34375 0.265625q0.578125 0.25 0.859375 0.75q0.296875 0.484375 0.265625 1.203125l-0.140625 2.1875q-0.03125 0.703125 0.21875 1.015625q0.25 0.3125 1.109375 0.3125l1.46875 0l0 1.0625l-1.46875 0q-0.84375 0 -1.109375 0.3125q-0.25 0.3125 -0.21875 1.015625l0.140625 2.1875q0.03125 0.703125 -0.265625 1.203125q-0.28125 0.5 -0.859375 0.75q-0.5625 0.265625 -1.34375 0.265625l-0.59375 0z" fill-rule="nonzero"/><path fill="#000000" fill-opacity="0.0" d="m110.821526 270.1076l84.18897 0l0 40.409454l-84.18897 0z" fill-rule="evenodd"/><path fill="#595959" d="m135.19112 296.5811q-0.78125 0 -1.359375 -0.265625q-0.5625 -0.25 -0.859375 -0.75q-0.28125 -0.5 -0.25 -1.203125l0.140625 -2.1875q0.03125 -0.703125 -0.21875 -1.015625q-0.25 -0.3125 -1.125 -0.3125l-1.453125 0l0 -1.0625l1.453125 0q0.875 0 1.125 -0.3125q0.25 -0.3125 0.21875 -1.015625l-0.140625 -2.1875q-0.03125 -0.71875 0.25 -1.203125q0.296875 -0.5 0.859375 -0.75q0.578125 -0.265625 1.359375 -0.265625l0.59375 0l0 1.0625l-0.59375 0q-0.625 0 -0.96875 0.296875q-0.328125 0.28125 -0.296875 0.859375l0.125 2.1875q0.0625 0.859375 -0.40625 1.375q-0.46875 0.515625 -1.3125 0.515625l0 -0.078125q0.828125 0 1.296875 0.53125q0.484375 0.515625 0.421875 1.375l-0.125 2.1875q-0.03125 0.578125 0.296875 0.859375q0.34375 0.296875 0.96875 0.296875l0.59375 0l0 1.0625l-0.59375 0zm2.4030914 -1.46875l2.59375 -3.765625l-2.4375 -3.5625l1.40625 0l1.453125 2.265625q0.09375 0.140625 0.171875 0.3125q0.09375 0.171875 0.15625 0.28125q0.03125 -0.109375 0.109375 -0.28125q0.09375 -0.171875 0.1875 -0.3125l1.46875 -2.265625l1.40625 0l-2.4375 3.5625l2.578125 3.765625l-1.40625 0l-1.578125 -2.40625q-0.09375 -0.140625 -0.1875 -0.328125q-0.078125 -0.203125 -0.140625 -0.3125q-0.0625 0.109375 -0.15625 0.3125q-0.09375 0.1875 -0.203125 0.328125l-1.59375 2.40625l-1.390625 0zm9.528091 2.125l1.0625 -4.140625l1.734375 0l-1.734375 4.140625l-1.0625 0zm14.993683 -2.125l0 -1.203125l4.09375 -5.03125l-3.984375 0l0 -1.09375l5.34375 0l0 1.203125l-4.1875 5.03125l4.328125 0l0 1.09375l-5.59375 0zm7.9343414 1.46875l0 -1.0625l0.59375 0q0.625 0 0.953125 -0.296875q0.34375 -0.28125 0.3125 -0.859375l-0.140625 -2.1875q-0.046875 -0.859375 0.421875 -1.375q0.484375 -0.53125 1.3125 -0.53125l0 0.078125q-0.84375 0 -1.3125 -0.515625q-0.46875 -0.515625 -0.421875 -1.375l0.140625 -2.1875q0.03125 -0.578125 -0.3125 -0.859375q-0.328125 -0.296875 -0.953125 -0.296875l-0.59375 0l0 -1.0625l0.59375 0q0.78125 0 1.34375 0.265625q0.578125 0.25 0.859375 0.75q0.296875 0.484375 0.265625 1.203125l-0.140625 2.1875q-0.03125 0.703125 0.21875 1.015625q0.25 0.3125 1.109375 0.3125l1.46875 0l0 1.0625l-1.46875 0q-0.84375 0 -1.109375 0.3125q-0.25 0.3125 -0.21875 1.015625l0.140625 2.1875q0.03125 0.703125 -0.265625 1.203125q-0.28125 0.5 -0.859375 0.75q-0.5625 0.265625 -1.34375 0.265625l-0.59375 0z" fill-rule="nonzero"/><path fill="#000000" fill-opacity="0.0" d="m89.81365 310.51837l126.20472 0l0 40.409454l-126.20472 0z" fill-rule="evenodd"/><path fill="#595959" d="m123.195854 336.99185q-0.78125 0 -1.359375 -0.265625q-0.5625 -0.25 -0.859375 -0.75q-0.28125 -0.5 -0.25 -1.203125l0.140625 -2.1875q0.03125 -0.703125 -0.21875 -1.015625q-0.25 -0.3125 -1.125 -0.3125l-1.453125 0l0 -1.0625l1.453125 0q0.875 0 1.125 -0.3125q0.25 -0.3125 0.21875 -1.015625l-0.140625 -2.1875q-0.03125 -0.71875 0.25 -1.203125q0.296875 -0.5 0.859375 -0.75q0.578125 -0.265625 1.359375 -0.265625l0.59375 0l0 1.0625l-0.59375 0q-0.625 0 -0.96875 0.296875q-0.328125 0.28125 -0.296875 0.859375l0.125 2.1875q0.0625 0.859375 -0.40625 1.375q-0.46875 0.515625 -1.3125 0.515625l0 -0.078125q0.828125 0 1.296875 0.53125q0.484375 0.515625 0.421875 1.375l-0.125 2.1875q-0.03125 0.578125 0.296875 0.859375q0.34375 0.296875 0.96875 0.296875l0.59375 0l0 1.0625l-0.59375 0zm2.4030914 -1.46875l2.5937424 -3.765625l-2.4374924 -3.5625l1.40625 0l1.4531174 2.265625q0.09375 0.140625 0.171875 0.3125q0.09375 0.171875 0.15625 0.28125q0.03125 -0.109375 0.109375 -0.28125q0.09375 -0.171875 0.1875 -0.3125l1.46875 -2.265625l1.40625 0l-2.4375 3.5625l2.578125 3.765625l-1.40625 0l-1.578125 -2.40625q-0.09375 -0.140625 -0.1875 -0.328125q-0.078125 -0.203125 -0.140625 -0.3125q-0.0625 0.109375 -0.15625 0.3125q-0.09375 0.1875 -0.203125 0.328125l-1.5937424 2.40625l-1.390625 0zm9.528084 2.125l1.0625 -4.140625l1.734375 0l-1.734375 4.140625l-1.0625 0zm16.165558 0.28125l1.078125 -2.859375l-2.71875 -6.875l1.328125 0l1.703125 4.53125q0.09375 0.21875 0.171875 0.53125q0.09375 0.3125 0.140625 0.53125q0.046875 -0.21875 0.125 -0.53125q0.09375 -0.3125 0.171875 -0.53125l1.59375 -4.53125l1.296875 0l-3.609375 9.734375l-1.28125 0zm7.8249664 -0.28125l1.0625 -4.140625l1.734375 0l-1.734375 4.140625l-1.0625 0zm14.993683 -2.125l0 -1.203125l4.09375 -5.03125l-3.984375 0l0 -1.09375l5.34375 0l0 1.203125l-4.1875 5.03125l4.328125 0l0 1.09375l-5.59375 0zm7.9343414 1.46875l0 -1.0625l0.59375 0q0.625 0 0.953125 -0.296875q0.34375 -0.28125 0.3125 -0.859375l-0.140625 -2.1875q-0.046875 -0.859375 0.421875 -1.375q0.484375 -0.53125 1.3125 -0.53125l0 0.078125q-0.84375 0 -1.3125 -0.515625q-0.46875 -0.515625 -0.421875 -1.375l0.140625 -2.1875q0.03125 -0.578125 -0.3125 -0.859375q-0.328125 -0.296875 -0.953125 -0.296875l-0.59375 0l0 -1.0625l0.59375 0q0.78125 0 1.34375 0.265625q0.578125 0.25 0.859375 0.75q0.296875 0.484375 0.265625 1.203125l-0.140625 2.1875q-0.03125 0.703125 0.21875 1.015625q0.25 0.3125 1.109375 0.3125l1.46875 0l0 1.0625l-1.46875 0q-0.84375 0 -1.109375 0.3125q-0.25 0.3125 -0.21875 1.015625l0.140625 2.1875q0.03125 0.703125 -0.265625 1.203125q-0.28125 0.5 -0.859375 0.75q-0.5625 0.265625 -1.34375 0.265625l-0.59375 0z" fill-rule="nonzero"/><path fill="#000000" fill-opacity="0.0" d="m302.20996 275.7861l0 0c0 -53.61078 28.251892 -97.07088 63.102386 -97.07088l0 0c16.735779 0 32.786102 10.227081 44.620087 28.431396c11.833984 18.204315 18.48227 42.89467 18.48227 68.63948l0 0c0 53.61075 -28.251892 97.07086 -63.102356 97.07086l0 0c-34.850494 0 -63.102386 -43.460114 -63.102386 -97.07086z" fill-rule="evenodd"/><path stroke="#b45f06" stroke-width="1.0" stroke-linejoin="round" stroke-linecap="butt" d="m302.20996 275.7861l0 0c0 -53.61078 28.251892 -97.07088 63.102386 -97.07088l0 0c16.735779 0 32.786102 10.227081 44.620087 28.431396c11.833984 18.204315 18.48227 42.89467 18.48227 68.63948l0 0c0 53.61075 -28.251892 97.07086 -63.102356 97.07086l0 0c-34.850494 0 -63.102386 -43.460114 -63.102386 -97.07086z" fill-rule="evenodd"/><path fill="#000000" fill-opacity="0.0" d="m338.08398 190.38715l54.456696 0l0 40.40944l-54.456696 0z" fill-rule="evenodd"/><path fill="#595959" d="m359.5827 216.86061q-0.78125 0 -1.359375 -0.265625q-0.5625 -0.25 -0.859375 -0.75q-0.28125 -0.5 -0.25 -1.203125l0.140625 -2.1875q0.03125 -0.703125 -0.21875 -1.015625q-0.25 -0.3125 -1.125 -0.3125l-1.453125 0l0 -1.0625l1.453125 0q0.875 0 1.125 -0.3125q0.25 -0.3125 0.21875 -1.015625l-0.140625 -2.1875q-0.03125 -0.71875 0.25 -1.203125q0.296875 -0.5 0.859375 -0.75q0.578125 -0.265625 1.359375 -0.265625l0.59375 0l0 1.0625l-0.59375 0q-0.625 0 -0.96875 0.296875q-0.328125 0.28125 -0.296875 0.859375l0.125 2.1875q0.0625 0.859375 -0.40625 1.375q-0.46875 0.515625 -1.3125 0.515625l0 -0.078125q0.828125 0 1.296875 0.53125q0.484375 0.515625 0.421875 1.375l-0.125 2.1875q-0.03125 0.578125 0.296875 0.859375q0.34375 0.296875 0.96875 0.296875l0.59375 0l0 1.0625l-0.59375 0zm2.4030762 -1.46875l2.59375 -3.765625l-2.4375 -3.5625l1.40625 0l1.453125 2.265625q0.09375 0.140625 0.171875 0.3125q0.09375 0.171875 0.15625 0.28125q0.03125 -0.109375 0.109375 -0.28125q0.09375 -0.171875 0.1875 -0.3125l1.46875 -2.265625l1.40625 0l-2.4375 3.5625l2.578125 3.765625l-1.40625 0l-1.578125 -2.40625q-0.09375 -0.140625 -0.1875 -0.328125q-0.078125 -0.203125 -0.140625 -0.3125q-0.0625 0.109375 -0.15625 0.3125q-0.09375 0.1875 -0.203125 0.328125l-1.59375 2.40625l-1.390625 0zm8.465607 1.46875l0 -1.0625l0.59375 0q0.625 0 0.953125 -0.296875q0.34375 -0.28125 0.3125 -0.859375l-0.140625 -2.1875q-0.046875 -0.859375 0.421875 -1.375q0.484375 -0.53125 1.3125 -0.53125l0 0.078125q-0.84375 0 -1.3125 -0.515625q-0.46875 -0.515625 -0.421875 -1.375l0.140625 -2.1875q0.03125 -0.578125 -0.3125 -0.859375q-0.328125 -0.296875 -0.953125 -0.296875l-0.59375 0l0 -1.0625l0.59375 0q0.78125 0 1.34375 0.265625q0.578125 0.25 0.859375 0.75q0.296875 0.484375 0.265625 1.203125l-0.140625 2.1875q-0.03125 0.703125 0.21875 1.015625q0.25 0.3125 1.109375 0.3125l1.46875 0l0 1.0625l-1.46875 0q-0.84375 0 -1.109375 0.3125q-0.25 0.3125 -0.21875 1.015625l0.140625 2.1875q0.03125 0.703125 -0.265625 1.203125q-0.28125 0.5 -0.859375 0.75q-0.5625 0.265625 -1.34375 0.265625l-0.59375 0z" fill-rule="nonzero"/><path fill="#000000" fill-opacity="0.0" d="m323.21783 226.40027l84.188995 0l0 40.409454l-84.188995 0z" fill-rule="evenodd"/><path fill="#595959" d="m347.58743 252.87373q-0.78125 0 -1.359375 -0.265625q-0.5625 -0.25 -0.859375 -0.75q-0.28125 -0.5 -0.25 -1.203125l0.140625 -2.1875q0.03125 -0.703125 -0.21875 -1.015625q-0.25 -0.3125 -1.125 -0.3125l-1.453125 0l0 -1.0625l1.453125 0q0.875 0 1.125 -0.3125q0.25 -0.3125 0.21875 -1.015625l-0.140625 -2.1875q-0.03125 -0.71875 0.25 -1.203125q0.296875 -0.5 0.859375 -0.75q0.578125 -0.265625 1.359375 -0.265625l0.59375 0l0 1.0625l-0.59375 0q-0.625 0 -0.96875 0.296875q-0.328125 0.28125 -0.296875 0.859375l0.125 2.1875q0.0625 0.859375 -0.40625 1.375q-0.46875 0.515625 -1.3125 0.515625l0 -0.078125q0.828125 0 1.296875 0.53125q0.484375 0.515625 0.421875 1.375l-0.125 2.1875q-0.03125 0.578125 0.296875 0.859375q0.34375 0.296875 0.96875 0.296875l0.59375 0l0 1.0625l-0.59375 0zm2.4031067 -1.46875l2.59375 -3.765625l-2.4375 -3.5625l1.40625 0l1.453125 2.265625q0.09375 0.140625 0.171875 0.3125q0.09375 0.171875 0.15625 0.28125q0.03125 -0.109375 0.109375 -0.28125q0.09375 -0.171875 0.1875 -0.3125l1.46875 -2.265625l1.40625 0l-2.4375 3.5625l2.578125 3.765625l-1.40625 0l-1.578125 -2.40625q-0.09375 -0.140625 -0.1875 -0.328125q-0.078125 -0.203125 -0.140625 -0.3125q-0.0625 0.109375 -0.15625 0.3125q-0.09375 0.1875 -0.203125 0.328125l-1.59375 2.40625l-1.390625 0zm9.528076 2.125l1.0625 -4.140625l1.734375 0l-1.734375 4.140625l-1.0625 0zm16.165558 0.28125l1.078125 -2.859375l-2.71875 -6.875l1.328125 0l1.703125 4.53125q0.09375 0.21875 0.171875 0.53125q0.09375 0.3125 0.140625 0.53125q0.046875 -0.21875 0.125 -0.53125q0.09375 -0.3125 0.171875 -0.53125l1.59375 -4.53125l1.296875 0l-3.609375 9.734375l-1.28125 0zm6.7624817 -0.9375l0 -1.0625l0.59375 0q0.625 0 0.953125 -0.296875q0.34375 -0.28125 0.3125 -0.859375l-0.140625 -2.1875q-0.046875 -0.859375 0.421875 -1.375q0.484375 -0.53125 1.3125 -0.53125l0 0.078125q-0.84375 0 -1.3125 -0.515625q-0.46875 -0.515625 -0.421875 -1.375l0.140625 -2.1875q0.03125 -0.578125 -0.3125 -0.859375q-0.328125 -0.296875 -0.953125 -0.296875l-0.59375 0l0 -1.0625l0.59375 0q0.78125 0 1.34375 0.265625q0.578125 0.25 0.859375 0.75q0.296875 0.484375 0.265625 1.203125l-0.140625 2.1875q-0.03125 0.703125 0.21875 1.015625q0.25 0.3125 1.109375 0.3125l1.46875 0l0 1.0625l-1.46875 0q-0.84375 0 -1.109375 0.3125q-0.25 0.3125 -0.21875 1.015625l0.140625 2.1875q0.03125 0.703125 -0.265625 1.203125q-0.28125 0.5 -0.859375 0.75q-0.5625 0.265625 -1.34375 0.265625l-0.59375 0z" fill-rule="nonzero"/><path fill="#000000" fill-opacity="0.0" d="m323.21783 270.1076l84.188995 0l0 40.409454l-84.188995 0z" fill-rule="evenodd"/><path fill="#595959" d="m347.58743 296.5811q-0.78125 0 -1.359375 -0.265625q-0.5625 -0.25 -0.859375 -0.75q-0.28125 -0.5 -0.25 -1.203125l0.140625 -2.1875q0.03125 -0.703125 -0.21875 -1.015625q-0.25 -0.3125 -1.125 -0.3125l-1.453125 0l0 -1.0625l1.453125 0q0.875 0 1.125 -0.3125q0.25 -0.3125 0.21875 -1.015625l-0.140625 -2.1875q-0.03125 -0.71875 0.25 -1.203125q0.296875 -0.5 0.859375 -0.75q0.578125 -0.265625 1.359375 -0.265625l0.59375 0l0 1.0625l-0.59375 0q-0.625 0 -0.96875 0.296875q-0.328125 0.28125 -0.296875 0.859375l0.125 2.1875q0.0625 0.859375 -0.40625 1.375q-0.46875 0.515625 -1.3125 0.515625l0 -0.078125q0.828125 0 1.296875 0.53125q0.484375 0.515625 0.421875 1.375l-0.125 2.1875q-0.03125 0.578125 0.296875 0.859375q0.34375 0.296875 0.96875 0.296875l0.59375 0l0 1.0625l-0.59375 0zm2.4031067 -1.46875l2.59375 -3.765625l-2.4375 -3.5625l1.40625 0l1.453125 2.265625q0.09375 0.140625 0.171875 0.3125q0.09375 0.171875 0.15625 0.28125q0.03125 -0.109375 0.109375 -0.28125q0.09375 -0.171875 0.1875 -0.3125l1.46875 -2.265625l1.40625 0l-2.4375 3.5625l2.578125 3.765625l-1.40625 0l-1.578125 -2.40625q-0.09375 -0.140625 -0.1875 -0.328125q-0.078125 -0.203125 -0.140625 -0.3125q-0.0625 0.109375 -0.15625 0.3125q-0.09375 0.1875 -0.203125 0.328125l-1.59375 2.40625l-1.390625 0zm9.528076 2.125l1.0625 -4.140625l1.734375 0l-1.734375 4.140625l-1.0625 0zm14.993683 -2.125l0 -1.203125l4.09375 -5.03125l-3.984375 0l0 -1.09375l5.34375 0l0 1.203125l-4.1875 5.03125l4.328125 0l0 1.09375l-5.59375 0zm7.9343567 1.46875l0 -1.0625l0.59375 0q0.625 0 0.953125 -0.296875q0.34375 -0.28125 0.3125 -0.859375l-0.140625 -2.1875q-0.046875 -0.859375 0.421875 -1.375q0.484375 -0.53125 1.3125 -0.53125l0 0.078125q-0.84375 0 -1.3125 -0.515625q-0.46875 -0.515625 -0.421875 -1.375l0.140625 -2.1875q0.03125 -0.578125 -0.3125 -0.859375q-0.328125 -0.296875 -0.953125 -0.296875l-0.59375 0l0 -1.0625l0.59375 0q0.78125 0 1.34375 0.265625q0.578125 0.25 0.859375 0.75q0.296875 0.484375 0.265625 1.203125l-0.140625 2.1875q-0.03125 0.703125 0.21875 1.015625q0.25 0.3125 1.109375 0.3125l1.46875 0l0 1.0625l-1.46875 0q-0.84375 0 -1.109375 0.3125q-0.25 0.3125 -0.21875 1.015625l0.140625 2.1875q0.03125 0.703125 -0.265625 1.203125q-0.28125 0.5 -0.859375 0.75q-0.5625 0.265625 -1.34375 0.265625l-0.59375 0z" fill-rule="nonzero"/><path fill="#000000" fill-opacity="0.0" d="m323.21783 310.51837l95.055145 0l0 40.409454l-95.055145 0z" fill-rule="evenodd"/><path fill="#595959" d="m341.02524 336.99185q-0.78125 0 -1.359375 -0.265625q-0.5625 -0.25 -0.859375 -0.75q-0.28125 -0.5 -0.25 -1.203125l0.140625 -2.1875q0.03125 -0.703125 -0.21875 -1.015625q-0.25 -0.3125 -1.125 -0.3125l-1.453125 0l0 -1.0625l1.453125 0q0.875 0 1.125 -0.3125q0.25 -0.3125 0.21875 -1.015625l-0.140625 -2.1875q-0.03125 -0.71875 0.25 -1.203125q0.296875 -0.5 0.859375 -0.75q0.578125 -0.265625 1.359375 -0.265625l0.59375 0l0 1.0625l-0.59375 0q-0.625 0 -0.96875 0.296875q-0.328125 0.28125 -0.296875 0.859375l0.125 2.1875q0.0625 0.859375 -0.40625 1.375q-0.46875 0.515625 -1.3125 0.515625l0 -0.078125q0.828125 0 1.296875 0.53125q0.484375 0.515625 0.421875 1.375l-0.125 2.1875q-0.03125 0.578125 0.296875 0.859375q0.34375 0.296875 0.96875 0.296875l0.59375 0l0 1.0625l-0.59375 0zm2.4031067 -1.46875l2.59375 -3.765625l-2.4375 -3.5625l1.40625 0l1.453125 2.265625q0.09375 0.140625 0.171875 0.3125q0.09375 0.171875 0.15625 0.28125q0.03125 -0.109375 0.109375 -0.28125q0.09375 -0.171875 0.1875 -0.3125l1.46875 -2.265625l1.40625 0l-2.4375 3.5625l2.578125 3.765625l-1.40625 0l-1.578125 -2.40625q-0.09375 -0.140625 -0.1875 -0.328125q-0.078125 -0.203125 -0.140625 -0.3125q-0.0625 0.109375 -0.15625 0.3125q-0.09375 0.1875 -0.203125 0.328125l-1.59375 2.40625l-1.390625 0zm9.528076 2.125l1.0625 -4.140625l1.734375 0l-1.734375 4.140625l-1.0625 0zm16.165558 0.28125l1.078125 -2.859375l-2.71875 -6.875l1.328125 0l1.703125 4.53125q0.09375 0.21875 0.171875 0.53125q0.09375 0.3125 0.140625 0.53125q0.046875 -0.21875 0.125 -0.53125q0.09375 -0.3125 0.171875 -0.53125l1.59375 -4.53125l1.296875 0l-3.609375 9.734375l-1.28125 0zm7.8249817 -0.28125l1.0625 -4.140625l1.734375 0l-1.734375 4.140625l-1.0625 0zm14.993683 -2.125l0 -1.203125l4.09375 -5.03125l-3.984375 0l0 -1.09375l5.34375 0l0 1.203125l-4.1875 5.03125l4.328125 0l0 1.09375l-5.59375 0zm7.934326 1.46875l0 -1.0625l0.59375 0q0.625 0 0.953125 -0.296875q0.34375 -0.28125 0.3125 -0.859375l-0.140625 -2.1875q-0.046875 -0.859375 0.421875 -1.375q0.484375 -0.53125 1.3125 -0.53125l0 0.078125q-0.84375 0 -1.3125 -0.515625q-0.46875 -0.515625 -0.421875 -1.375l0.140625 -2.1875q0.03125 -0.578125 -0.3125 -0.859375q-0.328125 -0.296875 -0.953125 -0.296875l-0.59375 0l0 -1.0625l0.59375 0q0.78125 0 1.34375 0.265625q0.578125 0.25 0.859375 0.75q0.296875 0.484375 0.265625 1.203125l-0.140625 2.1875q-0.03125 0.703125 0.21875 1.015625q0.25 0.3125 1.109375 0.3125l1.46875 0l0 1.0625l-1.46875 0q-0.84375 0 -1.109375 0.3125q-0.25 0.3125 -0.21875 1.015625l0.140625 2.1875q0.03125 0.703125 -0.265625 1.203125q-0.28125 0.5 -0.859375 0.75q-0.5625 0.265625 -1.34375 0.265625l-0.59375 0z" fill-rule="nonzero"/><path fill="#000000" fill-opacity="0.0" d="m180.14436 210.59186l143.0866 36.0" fill-rule="evenodd"/><path stroke="#666666" stroke-width="2.0" stroke-linejoin="round" stroke-linecap="butt" d="m180.14436 210.59186l143.0866 36.0" fill-rule="evenodd"/><path fill="#000000" fill-opacity="0.0" d="m180.14436 210.59186l143.0866 79.71655" fill-rule="evenodd"/><path stroke="#666666" stroke-width="2.0" stroke-linejoin="round" stroke-linecap="butt" d="m180.14436 210.59186l143.0866 79.71655" fill-rule="evenodd"/><path fill="#000000" fill-opacity="0.0" d="m180.14436 210.59186l143.0866 120.12598" fill-rule="evenodd"/><path stroke="#666666" stroke-width="2.0" stroke-linejoin="round" stroke-linecap="butt" d="m180.14436 210.59186l143.0866 120.12598" fill-rule="evenodd"/><path fill="#000000" fill-opacity="0.0" d="m195.0105 246.60498l128.22046 84.12598" fill-rule="evenodd"/><path stroke="#666666" stroke-width="2.0" stroke-linejoin="round" stroke-linecap="butt" d="m195.0105 246.60498l128.22046 84.12598" fill-rule="evenodd"/><path fill="#000000" fill-opacity="0.0" d="m195.0105 290.31235l128.22046 40.409424" fill-rule="evenodd"/><path stroke="#666666" stroke-width="2.0" stroke-linejoin="round" stroke-linecap="butt" d="m195.0105 290.31235l128.22046 40.409424" fill-rule="evenodd"/><path fill="#000000" fill-opacity="0.0" d="m136.79002 120.96982l32.25197 0l0 48.472443l-32.25197 0z" fill-rule="evenodd"/><path fill="#595959" d="m152.99315 154.08041q-2.515625 0 -3.890625 -1.375q-1.375 -1.375 -1.375 -3.75l0 -12.625l2.59375 0l0 12.625q0 1.3125 0.65625 2.078125q0.671875 0.765625 2.015625 0.765625q1.3125 0 1.984375 -0.765625q0.671875 -0.765625 0.671875 -2.078125l0 -12.625l2.59375 0l0 12.625q0 2.375 -1.375 3.75q-1.359375 1.375 -3.875 1.375z" fill-rule="nonzero"/><path fill="#000000" fill-opacity="0.0" d="m349.18634 120.96982l32.251984 0l0 48.472443l-32.251984 0z" fill-rule="evenodd"/><path fill="#595959" d="m363.6551 153.84604l-4.4375 -17.515625l2.671875 0l2.796875 11.65625q0.265625 1.03125 0.46875 2.0625q0.203125 1.015625 0.296875 1.59375q0.109375 -0.578125 0.28125 -1.59375q0.1875 -1.03125 0.4375 -2.078125l2.796875 -11.640625l2.59375 0l-4.46875 17.515625l-3.4375 0z" fill-rule="nonzero"/><path fill="#000000" fill-opacity="0.0" d="m531.5853 275.7874l0 0c0 -53.61078 28.251892 -97.07088 63.102356 -97.07088l0 0c16.735779 0 32.78607 10.227081 44.620117 28.431396c11.833984 18.204315 18.482239 42.89467 18.482239 68.63948l0 0c0 53.61075 -28.251892 97.07086 -63.102356 97.07086l0 0c-34.850464 0 -63.102356 -43.460114 -63.102356 -97.07086z" fill-rule="evenodd"/><path stroke="#38761d" stroke-width="1.0" stroke-linejoin="round" stroke-linecap="butt" d="m531.5853 275.7874l0 0c0 -53.61078 28.251892 -97.07088 63.102356 -97.07088l0 0c16.735779 0 32.78607 10.227081 44.620117 28.431396c11.833984 18.204315 18.482239 42.89467 18.482239 68.63948l0 0c0 53.61075 -28.251892 97.07086 -63.102356 97.07086l0 0c-34.850464 0 -63.102356 -43.460114 -63.102356 -97.07086z" fill-rule="evenodd"/><path fill="#000000" fill-opacity="0.0" d="m567.4593 190.38846l54.456726 0l0 40.40944l-54.456726 0z" fill-rule="evenodd"/><path fill="#595959" d="m588.958 216.86192q-0.78125 0 -1.359375 -0.265625q-0.5625 -0.25 -0.859375 -0.75q-0.28125 -0.5 -0.25 -1.203125l0.140625 -2.1875q0.03125 -0.703125 -0.21875 -1.015625q-0.25 -0.3125 -1.125 -0.3125l-1.453125 0l0 -1.0625l1.453125 0q0.875 0 1.125 -0.3125q0.25 -0.3125 0.21875 -1.015625l-0.140625 -2.1875q-0.03125 -0.71875 0.25 -1.203125q0.296875 -0.5 0.859375 -0.75q0.578125 -0.265625 1.359375 -0.265625l0.59375 0l0 1.0625l-0.59375 0q-0.625 0 -0.96875 0.296875q-0.328125 0.28125 -0.296875 0.859375l0.125 2.1875q0.0625 0.859375 -0.40625 1.375q-0.46875 0.515625 -1.3125 0.515625l0 -0.078125q0.828125 0 1.296875 0.53125q0.484375 0.515625 0.421875 1.375l-0.125 2.1875q-0.03125 0.578125 0.296875 0.859375q0.34375 0.296875 0.96875 0.296875l0.59375 0l0 1.0625l-0.59375 0zm2.4031372 -1.46875l2.59375 -3.765625l-2.4375 -3.5625l1.40625 0l1.453125 2.265625q0.09375 0.140625 0.171875 0.3125q0.09375 0.171875 0.15625 0.28125q0.03125 -0.109375 0.109375 -0.28125q0.09375 -0.171875 0.1875 -0.3125l1.46875 -2.265625l1.40625 0l-2.4375 3.5625l2.578125 3.765625l-1.40625 0l-1.578125 -2.40625q-0.09375 -0.140625 -0.1875 -0.328125q-0.078125 -0.203125 -0.140625 -0.3125q-0.0625 0.109375 -0.15625 0.3125q-0.09375 0.1875 -0.203125 0.328125l-1.59375 2.40625l-1.390625 0zm8.465576 1.46875l0 -1.0625l0.59375 0q0.625 0 0.953125 -0.296875q0.34375 -0.28125 0.3125 -0.859375l-0.140625 -2.1875q-0.046875 -0.859375 0.421875 -1.375q0.484375 -0.53125 1.3125 -0.53125l0 0.078125q-0.84375 0 -1.3125 -0.515625q-0.46875 -0.515625 -0.421875 -1.375l0.140625 -2.1875q0.03125 -0.578125 -0.3125 -0.859375q-0.328125 -0.296875 -0.953125 -0.296875l-0.59375 0l0 -1.0625l0.59375 0q0.78125 0 1.34375 0.265625q0.578125 0.25 0.859375 0.75q0.296875 0.484375 0.265625 1.203125l-0.140625 2.1875q-0.03125 0.703125 0.21875 1.015625q0.25 0.3125 1.109375 0.3125l1.46875 0l0 1.0625l-1.46875 0q-0.84375 0 -1.109375 0.3125q-0.25 0.3125 -0.21875 1.015625l0.140625 2.1875q0.03125 0.703125 -0.265625 1.203125q-0.28125 0.5 -0.859375 0.75q-0.5625 0.265625 -1.34375 0.265625l-0.59375 0z" fill-rule="nonzero"/><path fill="#000000" fill-opacity="0.0" d="m552.5932 226.40158l84.188965 0l0 40.409454l-84.188965 0z" fill-rule="evenodd"/><path fill="#595959" d="m576.96277 252.87505q-0.78125 0 -1.359375 -0.265625q-0.5625 -0.25 -0.859375 -0.75q-0.28125 -0.5 -0.25 -1.203125l0.140625 -2.1875q0.03125 -0.703125 -0.21875 -1.015625q-0.25 -0.3125 -1.125 -0.3125l-1.453125 0l0 -1.0625l1.453125 0q0.875 0 1.125 -0.3125q0.25 -0.3125 0.21875 -1.015625l-0.140625 -2.1875q-0.03125 -0.71875 0.25 -1.203125q0.296875 -0.5 0.859375 -0.75q0.578125 -0.265625 1.359375 -0.265625l0.59375 0l0 1.0625l-0.59375 0q-0.625 0 -0.96875 0.296875q-0.328125 0.28125 -0.296875 0.859375l0.125 2.1875q0.0625 0.859375 -0.40625 1.375q-0.46875 0.515625 -1.3125 0.515625l0 -0.078125q0.828125 0 1.296875 0.53125q0.484375 0.515625 0.421875 1.375l-0.125 2.1875q-0.03125 0.578125 0.296875 0.859375q0.34375 0.296875 0.96875 0.296875l0.59375 0l0 1.0625l-0.59375 0zm2.4030762 -1.46875l2.59375 -3.765625l-2.4375 -3.5625l1.40625 0l1.453125 2.265625q0.09375 0.140625 0.171875 0.3125q0.09375 0.171875 0.15625 0.28125q0.03125 -0.109375 0.109375 -0.28125q0.09375 -0.171875 0.1875 -0.3125l1.46875 -2.265625l1.40625 0l-2.4375 3.5625l2.578125 3.765625l-1.40625 0l-1.578125 -2.40625q-0.09375 -0.140625 -0.1875 -0.328125q-0.078125 -0.203125 -0.140625 -0.3125q-0.0625 0.109375 -0.15625 0.3125q-0.09375 0.1875 -0.203125 0.328125l-1.59375 2.40625l-1.390625 0zm9.528076 2.125l1.0625 -4.140625l1.734375 0l-1.734375 4.140625l-1.0625 0zm16.165588 0.28125l1.078125 -2.859375l-2.71875 -6.875l1.328125 0l1.703125 4.53125q0.09375 0.21875 0.171875 0.53125q0.09375 0.3125 0.140625 0.53125q0.046875 -0.21875 0.125 -0.53125q0.09375 -0.3125 0.171875 -0.53125l1.59375 -4.53125l1.296875 0l-3.609375 9.734375l-1.28125 0zm6.762451 -0.9375l0 -1.0625l0.59375 0q0.625 0 0.953125 -0.296875q0.34375 -0.28125 0.3125 -0.859375l-0.140625 -2.1875q-0.046875 -0.859375 0.421875 -1.375q0.484375 -0.53125 1.3125 -0.53125l0 0.078125q-0.84375 0 -1.3125 -0.515625q-0.46875 -0.515625 -0.421875 -1.375l0.140625 -2.1875q0.03125 -0.578125 -0.3125 -0.859375q-0.328125 -0.296875 -0.953125 -0.296875l-0.59375 0l0 -1.0625l0.59375 0q0.78125 0 1.34375 0.265625q0.578125 0.25 0.859375 0.75q0.296875 0.484375 0.265625 1.203125l-0.140625 2.1875q-0.03125 0.703125 0.21875 1.015625q0.25 0.3125 1.109375 0.3125l1.46875 0l0 1.0625l-1.46875 0q-0.84375 0 -1.109375 0.3125q-0.25 0.3125 -0.21875 1.015625l0.140625 2.1875q0.03125 0.703125 -0.265625 1.203125q-0.28125 0.5 -0.859375 0.75q-0.5625 0.265625 -1.34375 0.265625l-0.59375 0z" fill-rule="nonzero"/><path fill="#000000" fill-opacity="0.0" d="m552.5932 270.10892l84.188965 0l0 40.409454l-84.188965 0z" fill-rule="evenodd"/><path fill="#595959" d="m576.96277 296.5824q-0.78125 0 -1.359375 -0.265625q-0.5625 -0.25 -0.859375 -0.75q-0.28125 -0.5 -0.25 -1.203125l0.140625 -2.1875q0.03125 -0.703125 -0.21875 -1.015625q-0.25 -0.3125 -1.125 -0.3125l-1.453125 0l0 -1.0625l1.453125 0q0.875 0 1.125 -0.3125q0.25 -0.3125 0.21875 -1.015625l-0.140625 -2.1875q-0.03125 -0.71875 0.25 -1.203125q0.296875 -0.5 0.859375 -0.75q0.578125 -0.265625 1.359375 -0.265625l0.59375 0l0 1.0625l-0.59375 0q-0.625 0 -0.96875 0.296875q-0.328125 0.28125 -0.296875 0.859375l0.125 2.1875q0.0625 0.859375 -0.40625 1.375q-0.46875 0.515625 -1.3125 0.515625l0 -0.078125q0.828125 0 1.296875 0.53125q0.484375 0.515625 0.421875 1.375l-0.125 2.1875q-0.03125 0.578125 0.296875 0.859375q0.34375 0.296875 0.96875 0.296875l0.59375 0l0 1.0625l-0.59375 0zm2.4030762 -1.46875l2.59375 -3.765625l-2.4375 -3.5625l1.40625 0l1.453125 2.265625q0.09375 0.140625 0.171875 0.3125q0.09375 0.171875 0.15625 0.28125q0.03125 -0.109375 0.109375 -0.28125q0.09375 -0.171875 0.1875 -0.3125l1.46875 -2.265625l1.40625 0l-2.4375 3.5625l2.578125 3.765625l-1.40625 0l-1.578125 -2.40625q-0.09375 -0.140625 -0.1875 -0.328125q-0.078125 -0.203125 -0.140625 -0.3125q-0.0625 0.109375 -0.15625 0.3125q-0.09375 0.1875 -0.203125 0.328125l-1.59375 2.40625l-1.390625 0zm9.528076 2.125l1.0625 -4.140625l1.734375 0l-1.734375 4.140625l-1.0625 0zm14.993713 -2.125l0 -1.203125l4.09375 -5.03125l-3.984375 0l0 -1.09375l5.34375 0l0 1.203125l-4.1875 5.03125l4.328125 0l0 1.09375l-5.59375 0zm7.934326 1.46875l0 -1.0625l0.59375 0q0.625 0 0.953125 -0.296875q0.34375 -0.28125 0.3125 -0.859375l-0.140625 -2.1875q-0.046875 -0.859375 0.421875 -1.375q0.484375 -0.53125 1.3125 -0.53125l0 0.078125q-0.84375 0 -1.3125 -0.515625q-0.46875 -0.515625 -0.421875 -1.375l0.140625 -2.1875q0.03125 -0.578125 -0.3125 -0.859375q-0.328125 -0.296875 -0.953125 -0.296875l-0.59375 0l0 -1.0625l0.59375 0q0.78125 0 1.34375 0.265625q0.578125 0.25 0.859375 0.75q0.296875 0.484375 0.265625 1.203125l-0.140625 2.1875q-0.03125 0.703125 0.21875 1.015625q0.25 0.3125 1.109375 0.3125l1.46875 0l0 1.0625l-1.46875 0q-0.84375 0 -1.109375 0.3125q-0.25 0.3125 -0.21875 1.015625l0.140625 2.1875q0.03125 0.703125 -0.265625 1.203125q-0.28125 0.5 -0.859375 0.75q-0.5625 0.265625 -1.34375 0.265625l-0.59375 0z" fill-rule="nonzero"/><path fill="#000000" fill-opacity="0.0" d="m531.5853 310.51968l126.20471 0l0 40.409454l-126.20471 0z" fill-rule="evenodd"/><path fill="#595959" d="m564.9675 336.99316q-0.78125 0 -1.359375 -0.265625q-0.5625 -0.25 -0.859375 -0.75q-0.28125 -0.5 -0.25 -1.203125l0.140625 -2.1875q0.03125 -0.703125 -0.21875 -1.015625q-0.25 -0.3125 -1.125 -0.3125l-1.453125 0l0 -1.0625l1.453125 0q0.875 0 1.125 -0.3125q0.25 -0.3125 0.21875 -1.015625l-0.140625 -2.1875q-0.03125 -0.71875 0.25 -1.203125q0.296875 -0.5 0.859375 -0.75q0.578125 -0.265625 1.359375 -0.265625l0.59375 0l0 1.0625l-0.59375 0q-0.625 0 -0.96875 0.296875q-0.328125 0.28125 -0.296875 0.859375l0.125 2.1875q0.0625 0.859375 -0.40625 1.375q-0.46875 0.515625 -1.3125 0.515625l0 -0.078125q0.828125 0 1.296875 0.53125q0.484375 0.515625 0.421875 1.375l-0.125 2.1875q-0.03125 0.578125 0.296875 0.859375q0.34375 0.296875 0.96875 0.296875l0.59375 0l0 1.0625l-0.59375 0zm2.4030762 -1.46875l2.59375 -3.765625l-2.4375 -3.5625l1.40625 0l1.453125 2.265625q0.09375 0.140625 0.171875 0.3125q0.09375 0.171875 0.15625 0.28125q0.03125 -0.109375 0.109375 -0.28125q0.09375 -0.171875 0.1875 -0.3125l1.46875 -2.265625l1.40625 0l-2.4375 3.5625l2.578125 3.765625l-1.40625 0l-1.578125 -2.40625q-0.09375 -0.140625 -0.1875 -0.328125q-0.078125 -0.203125 -0.140625 -0.3125q-0.0625 0.109375 -0.15625 0.3125q-0.09375 0.1875 -0.203125 0.328125l-1.59375 2.40625l-1.390625 0zm9.528076 2.125l1.0625 -4.140625l1.734375 0l-1.734375 4.140625l-1.0625 0zm16.165588 0.28125l1.078125 -2.859375l-2.71875 -6.875l1.328125 0l1.703125 4.53125q0.09375 0.21875 0.171875 0.53125q0.09375 0.3125 0.140625 0.53125q0.046875 -0.21875 0.125 -0.53125q0.09375 -0.3125 0.171875 -0.53125l1.59375 -4.53125l1.296875 0l-3.609375 9.734375l-1.28125 0zm7.824951 -0.28125l1.0625 -4.140625l1.734375 0l-1.734375 4.140625l-1.0625 0zm14.993652 -2.125l0 -1.203125l4.09375 -5.03125l-3.984375 0l0 -1.09375l5.34375 0l0 1.203125l-4.1875 5.03125l4.328125 0l0 1.09375l-5.59375 0zm7.934387 1.46875l0 -1.0625l0.59375 0q0.625 0 0.953125 -0.296875q0.34375 -0.28125 0.3125 -0.859375l-0.140625 -2.1875q-0.046875 -0.859375 0.421875 -1.375q0.484375 -0.53125 1.3125 -0.53125l0 0.078125q-0.84375 0 -1.3125 -0.515625q-0.46875 -0.515625 -0.421875 -1.375l0.140625 -2.1875q0.03125 -0.578125 -0.3125 -0.859375q-0.328125 -0.296875 -0.953125 -0.296875l-0.59375 0l0 -1.0625l0.59375 0q0.78125 0 1.34375 0.265625q0.578125 0.25 0.859375 0.75q0.296875 0.484375 0.265625 1.203125l-0.140625 2.1875q-0.03125 0.703125 0.21875 1.015625q0.25 0.3125 1.109375 0.3125l1.46875 0l0 1.0625l-1.46875 0q-0.84375 0 -1.109375 0.3125q-0.25 0.3125 -0.21875 1.015625l0.140625 2.1875q0.03125 0.703125 -0.265625 1.203125q-0.28125 0.5 -0.859375 0.75q-0.5625 0.265625 -1.34375 0.265625l-0.59375 0z" fill-rule="nonzero"/><path fill="#000000" fill-opacity="0.0" d="m743.9816 275.7874l0 0c0 -53.61078 28.251892 -97.07088 63.102356 -97.07088l0 0c16.735779 0 32.786133 10.227081 44.620117 28.431396c11.833984 18.204315 18.482239 42.89467 18.482239 68.63948l0 0c0 53.61075 -28.251892 97.07086 -63.102356 97.07086l0 0c-34.850464 0 -63.102356 -43.460114 -63.102356 -97.07086z" fill-rule="evenodd"/><path stroke="#b45f06" stroke-width="1.0" stroke-linejoin="round" stroke-linecap="butt" d="m743.9816 275.7874l0 0c0 -53.61078 28.251892 -97.07088 63.102356 -97.07088l0 0c16.735779 0 32.786133 10.227081 44.620117 28.431396c11.833984 18.204315 18.482239 42.89467 18.482239 68.63948l0 0c0 53.61075 -28.251892 97.07086 -63.102356 97.07086l0 0c-34.850464 0 -63.102356 -43.460114 -63.102356 -97.07086z" fill-rule="evenodd"/><path fill="#000000" fill-opacity="0.0" d="m779.85565 190.38846l54.456665 0l0 40.40944l-54.456665 0z" fill-rule="evenodd"/><path fill="#595959" d="m801.3544 216.86192q-0.78125 0 -1.359375 -0.265625q-0.5625 -0.25 -0.859375 -0.75q-0.28125 -0.5 -0.25 -1.203125l0.140625 -2.1875q0.03125 -0.703125 -0.21875 -1.015625q-0.25 -0.3125 -1.125 -0.3125l-1.453125 0l0 -1.0625l1.453125 0q0.875 0 1.125 -0.3125q0.25 -0.3125 0.21875 -1.015625l-0.140625 -2.1875q-0.03125 -0.71875 0.25 -1.203125q0.296875 -0.5 0.859375 -0.75q0.578125 -0.265625 1.359375 -0.265625l0.59375 0l0 1.0625l-0.59375 0q-0.625 0 -0.96875 0.296875q-0.328125 0.28125 -0.296875 0.859375l0.125 2.1875q0.0625 0.859375 -0.40625 1.375q-0.46875 0.515625 -1.3125 0.515625l0 -0.078125q0.828125 0 1.296875 0.53125q0.484375 0.515625 0.421875 1.375l-0.125 2.1875q-0.03125 0.578125 0.296875 0.859375q0.34375 0.296875 0.96875 0.296875l0.59375 0l0 1.0625l-0.59375 0zm2.4030762 -1.46875l2.59375 -3.765625l-2.4375 -3.5625l1.40625 0l1.453125 2.265625q0.09375 0.140625 0.171875 0.3125q0.09375 0.171875 0.15625 0.28125q0.03125 -0.109375 0.109375 -0.28125q0.09375 -0.171875 0.1875 -0.3125l1.46875 -2.265625l1.40625 0l-2.4375 3.5625l2.578125 3.765625l-1.40625 0l-1.578125 -2.40625q-0.09375 -0.140625 -0.1875 -0.328125q-0.078125 -0.203125 -0.140625 -0.3125q-0.0625 0.109375 -0.15625 0.3125q-0.09375 0.1875 -0.203125 0.328125l-1.59375 2.40625l-1.390625 0zm8.465576 1.46875l0 -1.0625l0.59375 0q0.625 0 0.953125 -0.296875q0.34375 -0.28125 0.3125 -0.859375l-0.140625 -2.1875q-0.046875 -0.859375 0.421875 -1.375q0.484375 -0.53125 1.3125 -0.53125l0 0.078125q-0.84375 0 -1.3125 -0.515625q-0.46875 -0.515625 -0.421875 -1.375l0.140625 -2.1875q0.03125 -0.578125 -0.3125 -0.859375q-0.328125 -0.296875 -0.953125 -0.296875l-0.59375 0l0 -1.0625l0.59375 0q0.78125 0 1.34375 0.265625q0.578125 0.25 0.859375 0.75q0.296875 0.484375 0.265625 1.203125l-0.140625 2.1875q-0.03125 0.703125 0.21875 1.015625q0.25 0.3125 1.109375 0.3125l1.46875 0l0 1.0625l-1.46875 0q-0.84375 0 -1.109375 0.3125q-0.25 0.3125 -0.21875 1.015625l0.140625 2.1875q0.03125 0.703125 -0.265625 1.203125q-0.28125 0.5 -0.859375 0.75q-0.5625 0.265625 -1.34375 0.265625l-0.59375 0z" fill-rule="nonzero"/><path fill="#000000" fill-opacity="0.0" d="m764.9895 226.40158l84.188965 0l0 40.409454l-84.188965 0z" fill-rule="evenodd"/><path fill="#595959" d="m789.3591 252.87505q-0.78125 0 -1.359375 -0.265625q-0.5625 -0.25 -0.859375 -0.75q-0.28125 -0.5 -0.25 -1.203125l0.140625 -2.1875q0.03125 -0.703125 -0.21875 -1.015625q-0.25 -0.3125 -1.125 -0.3125l-1.453125 0l0 -1.0625l1.453125 0q0.875 0 1.125 -0.3125q0.25 -0.3125 0.21875 -1.015625l-0.140625 -2.1875q-0.03125 -0.71875 0.25 -1.203125q0.296875 -0.5 0.859375 -0.75q0.578125 -0.265625 1.359375 -0.265625l0.59375 0l0 1.0625l-0.59375 0q-0.625 0 -0.96875 0.296875q-0.328125 0.28125 -0.296875 0.859375l0.125 2.1875q0.0625 0.859375 -0.40625 1.375q-0.46875 0.515625 -1.3125 0.515625l0 -0.078125q0.828125 0 1.296875 0.53125q0.484375 0.515625 0.421875 1.375l-0.125 2.1875q-0.03125 0.578125 0.296875 0.859375q0.34375 0.296875 0.96875 0.296875l0.59375 0l0 1.0625l-0.59375 0zm2.4031372 -1.46875l2.59375 -3.765625l-2.4375 -3.5625l1.40625 0l1.453125 2.265625q0.09375 0.140625 0.171875 0.3125q0.09375 0.171875 0.15625 0.28125q0.03125 -0.109375 0.109375 -0.28125q0.09375 -0.171875 0.1875 -0.3125l1.46875 -2.265625l1.40625 0l-2.4375 3.5625l2.578125 3.765625l-1.40625 0l-1.578125 -2.40625q-0.09375 -0.140625 -0.1875 -0.328125q-0.078125 -0.203125 -0.140625 -0.3125q-0.0625 0.109375 -0.15625 0.3125q-0.09375 0.1875 -0.203125 0.328125l-1.59375 2.40625l-1.390625 0zm9.528076 2.125l1.0625 -4.140625l1.734375 0l-1.734375 4.140625l-1.0625 0zm16.165527 0.28125l1.078125 -2.859375l-2.71875 -6.875l1.328125 0l1.703125 4.53125q0.09375 0.21875 0.171875 0.53125q0.09375 0.3125 0.140625 0.53125q0.046875 -0.21875 0.125 -0.53125q0.09375 -0.3125 0.171875 -0.53125l1.59375 -4.53125l1.296875 0l-3.609375 9.734375l-1.28125 0zm6.762512 -0.9375l0 -1.0625l0.59375 0q0.625 0 0.953125 -0.296875q0.34375 -0.28125 0.3125 -0.859375l-0.140625 -2.1875q-0.046875 -0.859375 0.421875 -1.375q0.484375 -0.53125 1.3125 -0.53125l0 0.078125q-0.84375 0 -1.3125 -0.515625q-0.46875 -0.515625 -0.421875 -1.375l0.140625 -2.1875q0.03125 -0.578125 -0.3125 -0.859375q-0.328125 -0.296875 -0.953125 -0.296875l-0.59375 0l0 -1.0625l0.59375 0q0.78125 0 1.34375 0.265625q0.578125 0.25 0.859375 0.75q0.296875 0.484375 0.265625 1.203125l-0.140625 2.1875q-0.03125 0.703125 0.21875 1.015625q0.25 0.3125 1.109375 0.3125l1.46875 0l0 1.0625l-1.46875 0q-0.84375 0 -1.109375 0.3125q-0.25 0.3125 -0.21875 1.015625l0.140625 2.1875q0.03125 0.703125 -0.265625 1.203125q-0.28125 0.5 -0.859375 0.75q-0.5625 0.265625 -1.34375 0.265625l-0.59375 0z" fill-rule="nonzero"/><path fill="#000000" fill-opacity="0.0" d="m764.9895 270.10892l84.188965 0l0 40.409454l-84.188965 0z" fill-rule="evenodd"/><path fill="#595959" d="m789.3591 296.5824q-0.78125 0 -1.359375 -0.265625q-0.5625 -0.25 -0.859375 -0.75q-0.28125 -0.5 -0.25 -1.203125l0.140625 -2.1875q0.03125 -0.703125 -0.21875 -1.015625q-0.25 -0.3125 -1.125 -0.3125l-1.453125 0l0 -1.0625l1.453125 0q0.875 0 1.125 -0.3125q0.25 -0.3125 0.21875 -1.015625l-0.140625 -2.1875q-0.03125 -0.71875 0.25 -1.203125q0.296875 -0.5 0.859375 -0.75q0.578125 -0.265625 1.359375 -0.265625l0.59375 0l0 1.0625l-0.59375 0q-0.625 0 -0.96875 0.296875q-0.328125 0.28125 -0.296875 0.859375l0.125 2.1875q0.0625 0.859375 -0.40625 1.375q-0.46875 0.515625 -1.3125 0.515625l0 -0.078125q0.828125 0 1.296875 0.53125q0.484375 0.515625 0.421875 1.375l-0.125 2.1875q-0.03125 0.578125 0.296875 0.859375q0.34375 0.296875 0.96875 0.296875l0.59375 0l0 1.0625l-0.59375 0zm2.4031372 -1.46875l2.59375 -3.765625l-2.4375 -3.5625l1.40625 0l1.453125 2.265625q0.09375 0.140625 0.171875 0.3125q0.09375 0.171875 0.15625 0.28125q0.03125 -0.109375 0.109375 -0.28125q0.09375 -0.171875 0.1875 -0.3125l1.46875 -2.265625l1.40625 0l-2.4375 3.5625l2.578125 3.765625l-1.40625 0l-1.578125 -2.40625q-0.09375 -0.140625 -0.1875 -0.328125q-0.078125 -0.203125 -0.140625 -0.3125q-0.0625 0.109375 -0.15625 0.3125q-0.09375 0.1875 -0.203125 0.328125l-1.59375 2.40625l-1.390625 0zm9.528076 2.125l1.0625 -4.140625l1.734375 0l-1.734375 4.140625l-1.0625 0zm14.993652 -2.125l0 -1.203125l4.09375 -5.03125l-3.984375 0l0 -1.09375l5.34375 0l0 1.203125l-4.1875 5.03125l4.328125 0l0 1.09375l-5.59375 0zm7.934387 1.46875l0 -1.0625l0.59375 0q0.625 0 0.953125 -0.296875q0.34375 -0.28125 0.3125 -0.859375l-0.140625 -2.1875q-0.046875 -0.859375 0.421875 -1.375q0.484375 -0.53125 1.3125 -0.53125l0 0.078125q-0.84375 0 -1.3125 -0.515625q-0.46875 -0.515625 -0.421875 -1.375l0.140625 -2.1875q0.03125 -0.578125 -0.3125 -0.859375q-0.328125 -0.296875 -0.953125 -0.296875l-0.59375 0l0 -1.0625l0.59375 0q0.78125 0 1.34375 0.265625q0.578125 0.25 0.859375 0.75q0.296875 0.484375 0.265625 1.203125l-0.140625 2.1875q-0.03125 0.703125 0.21875 1.015625q0.25 0.3125 1.109375 0.3125l1.46875 0l0 1.0625l-1.46875 0q-0.84375 0 -1.109375 0.3125q-0.25 0.3125 -0.21875 1.015625l0.140625 2.1875q0.03125 0.703125 -0.265625 1.203125q-0.28125 0.5 -0.859375 0.75q-0.5625 0.265625 -1.34375 0.265625l-0.59375 0z" fill-rule="nonzero"/><path fill="#000000" fill-opacity="0.0" d="m764.9895 310.51968l95.055115 0l0 40.409454l-95.055115 0z" fill-rule="evenodd"/><path fill="#595959" d="m782.7969 336.99316q-0.78125 0 -1.359375 -0.265625q-0.5625 -0.25 -0.859375 -0.75q-0.28125 -0.5 -0.25 -1.203125l0.140625 -2.1875q0.03125 -0.703125 -0.21875 -1.015625q-0.25 -0.3125 -1.125 -0.3125l-1.453125 0l0 -1.0625l1.453125 0q0.875 0 1.125 -0.3125q0.25 -0.3125 0.21875 -1.015625l-0.140625 -2.1875q-0.03125 -0.71875 0.25 -1.203125q0.296875 -0.5 0.859375 -0.75q0.578125 -0.265625 1.359375 -0.265625l0.59375 0l0 1.0625l-0.59375 0q-0.625 0 -0.96875 0.296875q-0.328125 0.28125 -0.296875 0.859375l0.125 2.1875q0.0625 0.859375 -0.40625 1.375q-0.46875 0.515625 -1.3125 0.515625l0 -0.078125q0.828125 0 1.296875 0.53125q0.484375 0.515625 0.421875 1.375l-0.125 2.1875q-0.03125 0.578125 0.296875 0.859375q0.34375 0.296875 0.96875 0.296875l0.59375 0l0 1.0625l-0.59375 0zm2.4031372 -1.46875l2.59375 -3.765625l-2.4375 -3.5625l1.40625 0l1.453125 2.265625q0.09375 0.140625 0.171875 0.3125q0.09375 0.171875 0.15625 0.28125q0.03125 -0.109375 0.109375 -0.28125q0.09375 -0.171875 0.1875 -0.3125l1.46875 -2.265625l1.40625 0l-2.4375 3.5625l2.578125 3.765625l-1.40625 0l-1.578125 -2.40625q-0.09375 -0.140625 -0.1875 -0.328125q-0.078125 -0.203125 -0.140625 -0.3125q-0.0625 0.109375 -0.15625 0.3125q-0.09375 0.1875 -0.203125 0.328125l-1.59375 2.40625l-1.390625 0zm9.528076 2.125l1.0625 -4.140625l1.734375 0l-1.734375 4.140625l-1.0625 0zm16.165527 0.28125l1.078125 -2.859375l-2.71875 -6.875l1.328125 0l1.703125 4.53125q0.09375 0.21875 0.171875 0.53125q0.09375 0.3125 0.140625 0.53125q0.046875 -0.21875 0.125 -0.53125q0.09375 -0.3125 0.171875 -0.53125l1.59375 -4.53125l1.296875 0l-3.609375 9.734375l-1.28125 0zm7.825012 -0.28125l1.0625 -4.140625l1.734375 0l-1.734375 4.140625l-1.0625 0zm14.993652 -2.125l0 -1.203125l4.09375 -5.03125l-3.984375 0l0 -1.09375l5.34375 0l0 1.203125l-4.1875 5.03125l4.328125 0l0 1.09375l-5.59375 0zm7.934326 1.46875l0 -1.0625l0.59375 0q0.625 0 0.953125 -0.296875q0.34375 -0.28125 0.3125 -0.859375l-0.140625 -2.1875q-0.046875 -0.859375 0.421875 -1.375q0.484375 -0.53125 1.3125 -0.53125l0 0.078125q-0.84375 0 -1.3125 -0.515625q-0.46875 -0.515625 -0.421875 -1.375l0.140625 -2.1875q0.03125 -0.578125 -0.3125 -0.859375q-0.328125 -0.296875 -0.953125 -0.296875l-0.59375 0l0 -1.0625l0.59375 0q0.78125 0 1.34375 0.265625q0.578125 0.25 0.859375 0.75q0.296875 0.484375 0.265625 1.203125l-0.140625 2.1875q-0.03125 0.703125 0.21875 1.015625q0.25 0.3125 1.109375 0.3125l1.46875 0l0 1.0625l-1.46875 0q-0.84375 0 -1.109375 0.3125q-0.25 0.3125 -0.21875 1.015625l0.140625 2.1875q0.03125 0.703125 -0.265625 1.203125q-0.28125 0.5 -0.859375 0.75q-0.5625 0.265625 -1.34375 0.265625l-0.59375 0z" fill-rule="nonzero"/><path fill="#000000" fill-opacity="0.0" d="m621.916 210.59317l143.08661 36.0" fill-rule="evenodd"/><path stroke="#666666" stroke-width="2.0" stroke-linejoin="round" stroke-linecap="butt" d="m621.916 210.59317l143.08661 36.0" fill-rule="evenodd"/><path fill="#000000" fill-opacity="0.0" d="m636.78217 290.31366l128.22046 40.409424" fill-rule="evenodd"/><path stroke="#666666" stroke-width="2.0" stroke-linejoin="round" stroke-linecap="butt" d="m636.78217 290.31366l128.22046 40.409424" fill-rule="evenodd"/><path fill="#000000" fill-opacity="0.0" d="m578.5617 120.97113l32.251953 0l0 48.472443l-32.251953 0z" fill-rule="evenodd"/><path fill="#595959" d="m594.76483 154.08173q-2.515625 0 -3.890625 -1.375q-1.375 -1.375 -1.375 -3.75l0 -12.625l2.59375 0l0 12.625q0 1.3125 0.65625 2.078125q0.671875 0.765625 2.015625 0.765625q1.3125 0 1.984375 -0.765625q0.671875 -0.765625 0.671875 -2.078125l0 -12.625l2.59375 0l0 12.625q0 2.375 -1.375 3.75q-1.359375 1.375 -3.875 1.375z" fill-rule="nonzero"/><path fill="#000000" fill-opacity="0.0" d="m790.958 120.97113l32.251953 0l0 48.472443l-32.251953 0z" fill-rule="evenodd"/><path fill="#595959" d="m805.42676 153.84735l-4.4375 -17.515625l2.671875 0l2.796875 11.65625q0.265625 1.03125 0.46875 2.0625q0.203125 1.015625 0.296875 1.59375q0.109375 -0.578125 0.28125 -1.59375q0.1875 -1.03125 0.4375 -2.078125l2.796875 -11.640625l2.59375 0l-4.46875 17.515625l-3.4375 0z" fill-rule="nonzero"/><path fill="#000000" fill-opacity="0.0" d="m128.20735 398.54068l246.96062 0l0 43.968506l-246.96062 0z" fill-rule="evenodd"/><path fill="#595959" d="m175.11777 426.76492l0 -12.65625l3.796875 0q1.8125 0 2.859375 0.875q1.0625 0.859375 1.0625 2.390625q0 0.84375 -0.375 1.484375q-0.375 0.625 -1.046875 0.984375q-0.65625 0.34375 -1.5 0.34375l0 -0.125q0.9375 -0.015625 1.65625 0.34375q0.71875 0.359375 1.125 1.078125q0.421875 0.703125 0.421875 1.6875q0 1.09375 -0.484375 1.921875q-0.484375 0.8125 -1.375 1.25q-0.890625 0.421875 -2.125 0.421875l-4.015625 0zm1.953125 -1.71875l1.921875 0q0.96875 0 1.546875 -0.515625q0.578125 -0.515625 0.578125 -1.4375q0 -0.9375 -0.578125 -1.5q-0.578125 -0.5625 -1.546875 -0.5625l-1.921875 0l0 4.015625zm0 -5.6875l1.828125 0q0.890625 0 1.40625 -0.46875q0.515625 -0.484375 0.515625 -1.296875q0 -0.828125 -0.515625 -1.296875q-0.515625 -0.46875 -1.390625 -0.46875l-1.84375 0l0 3.53125zm8.39682 7.40625l0 -1.84375l3.34375 0l0 -5.875l-2.921875 0l0 -1.8125l4.859375 0l0 7.6875l3.015625 0l0 1.84375l-8.296875 0zm4.140625 -11.15625q-0.640625 0 -1.015625 -0.3125q-0.359375 -0.328125 -0.359375 -0.890625q0 -0.5625 0.359375 -0.890625q0.375 -0.328125 1.015625 -0.328125q0.640625 0 1.0 0.328125q0.359375 0.328125 0.359375 0.890625q0 0.5625 -0.359375 0.890625q-0.359375 0.3125 -1.0 0.3125zm6.287445 14.28125l0 -12.65625l1.984375 0l0 1.8125l0.4375 0l-0.4375 0.46875q0 -1.140625 0.703125 -1.796875q0.703125 -0.65625 1.875 -0.65625q1.453125 0 2.296875 0.984375q0.859375 0.96875 0.859375 2.640625l0 2.625q0 1.09375 -0.390625 1.921875q-0.390625 0.828125 -1.09375 1.265625q-0.6875 0.4375 -1.671875 0.4375q-1.171875 0 -1.875 -0.65625q-0.703125 -0.65625 -0.703125 -1.796875l0.4375 0.46875l-0.453125 0l0.046875 2.234375l0 2.703125l-2.015625 0zm3.859375 -4.703125q0.859375 0 1.359375 -0.5q0.5 -0.515625 0.5 -1.453125l0 -2.46875q0 -0.953125 -0.5 -1.453125q-0.5 -0.5 -1.359375 -0.5q-0.84375 0 -1.34375 0.53125q-0.5 0.515625 -0.5 1.421875l0 2.46875q0 0.921875 0.5 1.4375q0.5 0.515625 1.34375 0.515625zm9.33432 1.75q-1.46875 0 -2.328125 -0.765625q-0.859375 -0.78125 -0.859375 -2.109375q0 -1.390625 0.921875 -2.140625q0.9375 -0.765625 2.578125 -0.765625l2.515625 0l0 -0.859375q0 -0.71875 -0.46875 -1.125q-0.46875 -0.421875 -1.296875 -0.421875q-0.75 0 -1.25 0.328125q-0.484375 0.3125 -0.5625 0.859375l-1.984375 0q0.15625 -1.3125 1.203125 -2.09375q1.046875 -0.78125 2.640625 -0.78125q1.734375 0 2.734375 0.875q1.015625 0.859375 1.015625 2.34375l0 6.484375l-1.984375 0l0 -1.703125l-0.328125 0l0.359375 -0.40625q0 1.046875 -0.796875 1.671875q-0.796875 0.609375 -2.109375 0.609375zm0.640625 -1.53125q0.953125 0 1.5625 -0.484375q0.625 -0.5 0.625 -1.265625l0 -1.203125l-2.46875 0q-0.703125 0 -1.125 0.390625q-0.40625 0.390625 -0.40625 1.046875q0 0.703125 0.484375 1.109375q0.484375 0.40625 1.328125 0.40625zm7.27182 1.359375l0 -9.53125l1.921875 0l0 1.8125l0.5 0l-0.609375 1.140625q0 -1.546875 0.6875 -2.328125q0.6875 -0.796875 2.015625 -0.796875q1.546875 0 2.421875 0.953125q0.890625 0.9375 0.890625 2.609375l0 0.671875l-2.09375 0l0 -0.53125q0 -0.96875 -0.5 -1.484375q-0.484375 -0.515625 -1.359375 -0.515625q-0.875 0 -1.375 0.53125q-0.484375 0.515625 -0.484375 1.46875l0 6.0l-2.015625 0zm14.92807 0q-1.328125 0 -2.078125 -0.734375q-0.75 -0.734375 -0.75 -2.03125l0 -4.953125l-2.609375 0l0 -1.8125l2.609375 0l0 -2.6875l2.015625 0l0 2.6875l3.703125 0l0 1.8125l-3.703125 0l0 4.953125q0 0.953125 0.9375 0.953125l2.59375 0l0 1.8125l-2.71875 0zm5.52182 0l0 -1.84375l3.34375 0l0 -5.875l-2.921875 0l0 -1.8125l4.859375 0l0 7.6875l3.015625 0l0 1.84375l-8.296875 0zm4.140625 -11.15625q-0.640625 0 -1.015625 -0.3125q-0.359375 -0.328125 -0.359375 -0.890625q0 -0.5625 0.359375 -0.890625q0.375 -0.328125 1.015625 -0.328125q0.640625 0 1.0 0.328125q0.359375 0.328125 0.359375 0.890625q0 0.5625 -0.359375 0.890625q-0.359375 0.3125 -1.0 0.3125zm11.131195 11.15625q-1.328125 0 -2.078125 -0.734375q-0.75 -0.734375 -0.75 -2.03125l0 -4.953125l-2.609375 0l0 -1.8125l2.609375 0l0 -2.6875l2.015625 0l0 2.6875l3.703125 0l0 1.8125l-3.703125 0l0 4.953125q0 0.953125 0.9375 0.953125l2.59375 0l0 1.8125l-2.71875 0zm9.36557 0.171875q-1.1875 0 -2.078125 -0.453125q-0.875 -0.46875 -1.359375 -1.296875q-0.484375 -0.84375 -0.484375 -1.953125l0 -2.46875q0 -1.109375 0.484375 -1.9375q0.484375 -0.84375 1.359375 -1.296875q0.890625 -0.46875 2.078125 -0.46875q1.1875 0 2.0625 0.46875q0.875 0.453125 1.359375 1.296875q0.484375 0.828125 0.484375 1.9375l0 1.71875l-5.890625 0l0 0.75q0 1.015625 0.515625 1.5625q0.515625 0.53125 1.484375 0.53125q0.78125 0 1.25 -0.28125q0.484375 -0.28125 0.59375 -0.78125l2.0 0q-0.21875 1.21875 -1.28125 1.953125q-1.0625 0.71875 -2.578125 0.71875zm1.96875 -5.625l0 -0.546875q0 -1.015625 -0.5 -1.5625q-0.484375 -0.546875 -1.46875 -0.546875q-0.953125 0 -1.46875 0.5625q-0.515625 0.546875 -0.515625 1.546875l0 0.40625l4.09375 -0.015625l-0.140625 0.15625zm16.29364 8.578125l0 -1.71875l2.875 0q0.71875 0 1.078125 -0.359375q0.375 -0.34375 0.375 -1.0l0 -0.84375l0.03125 -1.765625l-0.453125 0l0.4375 -0.421875q0 1.125 -0.6875 1.765625q-0.671875 0.640625 -1.84375 0.640625q-1.46875 0 -2.328125 -0.96875q-0.84375 -0.984375 -0.84375 -2.640625l0 -1.890625q0 -1.671875 0.84375 -2.640625q0.859375 -0.984375 2.328125 -0.984375q1.171875 0 1.84375 0.640625q0.6875 0.640625 0.6875 1.765625l-0.4375 -0.421875l0.4375 0l-0.03125 -1.8125l2.015625 0l0 9.625q0 1.390625 -0.921875 2.203125q-0.90625 0.828125 -2.5 0.828125l-2.90625 0zm2.484375 -5.453125q0.859375 0 1.34375 -0.515625q0.484375 -0.515625 0.484375 -1.4375l0 -1.71875q0 -0.90625 -0.484375 -1.421875q-0.484375 -0.53125 -1.34375 -0.53125q-0.875 0 -1.359375 0.515625q-0.46875 0.5 -0.46875 1.4375l0 1.71875q0 0.9375 0.46875 1.453125q0.484375 0.5 1.359375 0.5zm6.943695 2.328125l0 -9.53125l1.921875 0l0 1.8125l0.5 0l-0.609375 1.140625q0 -1.546875 0.6875 -2.328125q0.6875 -0.796875 2.015625 -0.796875q1.546875 0 2.421875 0.953125q0.890625 0.9375 0.890625 2.609375l0 0.671875l-2.09375 0l0 -0.53125q0 -0.96875 -0.5 -1.484375q-0.484375 -0.515625 -1.359375 -0.515625q-0.875 0 -1.375 0.53125q-0.484375 0.515625 -0.484375 1.46875l0 6.0l-2.015625 0zm12.881195 0.171875q-1.46875 0 -2.328125 -0.765625q-0.859375 -0.78125 -0.859375 -2.109375q0 -1.390625 0.921875 -2.140625q0.9375 -0.765625 2.578125 -0.765625l2.515625 0l0 -0.859375q0 -0.71875 -0.46875 -1.125q-0.46875 -0.421875 -1.296875 -0.421875q-0.75 0 -1.25 0.328125q-0.484375 0.3125 -0.5625 0.859375l-1.984375 0q0.15625 -1.3125 1.203125 -2.09375q1.046875 -0.78125 2.640625 -0.78125q1.734375 0 2.734375 0.875q1.015625 0.859375 1.015625 2.34375l0 6.484375l-1.984375 0l0 -1.703125l-0.328125 0l0.359375 -0.40625q0 1.046875 -0.796875 1.671875q-0.796875 0.609375 -2.109375 0.609375zm0.640625 -1.53125q0.953125 0 1.5625 -0.484375q0.625 -0.5 0.625 -1.265625l0 -1.203125l-2.46875 0q-0.703125 0 -1.125 0.390625q-0.40625 0.390625 -0.40625 1.046875q0 0.703125 0.484375 1.109375q0.484375 0.40625 1.328125 0.40625zm6.95932 4.484375l0 -12.65625l1.984375 0l0 1.8125l0.4375 0l-0.4375 0.46875q0 -1.140625 0.703125 -1.796875q0.703125 -0.65625 1.875 -0.65625q1.453125 0 2.296875 0.984375q0.859375 0.96875 0.859375 2.640625l0 2.625q0 1.09375 -0.390625 1.921875q-0.390625 0.828125 -1.09375 1.265625q-0.6875 0.4375 -1.671875 0.4375q-1.171875 0 -1.875 -0.65625q-0.703125 -0.65625 -0.703125 -1.796875l0.4375 0.46875l-0.453125 0l0.046875 2.234375l0 2.703125l-2.015625 0zm3.859375 -4.703125q0.859375 0 1.359375 -0.5q0.5 -0.515625 0.5 -1.453125l0 -2.46875q0 -0.953125 -0.5 -1.453125q-0.5 -0.5 -1.359375 -0.5q-0.84375 0 -1.34375 0.53125q-0.5 0.515625 -0.5 1.421875l0 2.46875q0 0.921875 0.5 1.4375q0.5 0.515625 1.34375 0.515625zm6.537445 1.578125l0 -12.65625l2.015625 0l0 3.125l-0.03125 1.8125l0.53125 0l-0.53125 0.46875q0 -1.15625 0.6875 -1.796875q0.6875 -0.65625 1.859375 -0.65625q1.421875 0 2.265625 0.921875q0.859375 0.921875 0.859375 2.484375l0 6.296875l-2.03125 0l0 -6.078125q0 -0.90625 -0.484375 -1.390625q-0.46875 -0.5 -1.296875 -0.5q-0.84375 0 -1.34375 0.515625q-0.484375 0.515625 -0.484375 1.453125l0 6.0l-2.015625 0z" fill-rule="nonzero"/><path fill="#000000" fill-opacity="0.0" d="m569.979 398.54068l246.96063 0l0 43.968506l-246.96063 0z" fill-rule="evenodd"/><path fill="#595959" d="m611.3472 426.76492l0 -12.65625l2.4375 0l1.25 4.046875q0.1875 0.59375 0.3125 1.109375q0.125 0.5 0.171875 0.734375q0.046875 -0.234375 0.171875 -0.734375q0.125 -0.515625 0.296875 -1.109375l1.1875 -4.046875l2.453125 0l0 12.65625l-1.90625 0l0 -4.09375q0 -0.84375 0.046875 -1.84375q0.046875 -1.015625 0.125 -2.03125q0.078125 -1.03125 0.171875 -1.953125q0.109375 -0.921875 0.171875 -1.59375l-1.78125 6.046875l-1.90625 0l-1.828125 -6.046875q0.09375 0.65625 0.171875 1.546875q0.09375 0.890625 0.171875 1.90625q0.078125 1.015625 0.125 2.046875q0.0625 1.015625 0.0625 1.921875l0 4.09375l-1.90625 0zm13.521851 0.171875q-1.46875 0 -2.328125 -0.765625q-0.859375 -0.78125 -0.859375 -2.109375q0 -1.390625 0.921875 -2.140625q0.9375 -0.765625 2.578125 -0.765625l2.515625 0l0 -0.859375q0 -0.71875 -0.46875 -1.125q-0.46875 -0.421875 -1.296875 -0.421875q-0.75 0 -1.25 0.328125q-0.484375 0.3125 -0.5625 0.859375l-1.984375 0q0.15625 -1.3125 1.203125 -2.09375q1.046875 -0.78125 2.640625 -0.78125q1.734375 0 2.734375 0.875q1.015625 0.859375 1.015625 2.34375l0 6.484375l-1.984375 0l0 -1.703125l-0.328125 0l0.359375 -0.40625q0 1.046875 -0.796875 1.671875q-0.796875 0.609375 -2.109375 0.609375zm0.640625 -1.53125q0.953125 0 1.5625 -0.484375q0.625 -0.5 0.625 -1.265625l0 -1.203125l-2.46875 0q-0.703125 0 -1.125 0.390625q-0.40625 0.390625 -0.40625 1.046875q0 0.703125 0.484375 1.109375q0.484375 0.40625 1.328125 0.40625zm6.2405396 1.359375l3.34375 -4.921875l-3.109375 -4.609375l2.296875 0l1.578125 2.484375q0.125 0.203125 0.234375 0.453125q0.125 0.25 0.203125 0.40625q0.046875 -0.15625 0.171875 -0.40625q0.125 -0.25 0.234375 -0.453125l1.578125 -2.484375l2.3125 0l-3.125 4.625l3.328125 4.90625l-2.296875 0l-1.765625 -2.734375q-0.125 -0.21875 -0.25 -0.46875q-0.125 -0.265625 -0.1875 -0.4375q-0.078125 0.171875 -0.203125 0.4375q-0.125 0.25 -0.265625 0.46875l-1.765625 2.734375l-2.3125 0zm11.084351 0l0 -1.84375l3.34375 0l0 -5.875l-2.921875 0l0 -1.8125l4.859375 0l0 7.6875l3.015625 0l0 1.84375l-8.296875 0zm4.140625 -11.15625q-0.640625 0 -1.015625 -0.3125q-0.359375 -0.328125 -0.359375 -0.890625q0 -0.5625 0.359375 -0.890625q0.375 -0.328125 1.015625 -0.328125q0.640625 0 1.0 0.328125q0.359375 0.328125 0.359375 0.890625q0 0.5625 -0.359375 0.890625q-0.359375 0.3125 -1.0 0.3125zm5.8499146 11.15625l0 -9.53125l1.6875 0l0 1.25l0.34375 0l-0.28125 0.34375q0 -0.8125 0.4375 -1.28125q0.453125 -0.484375 1.15625 -0.484375q0.78125 0 1.203125 0.625q0.421875 0.609375 0.421875 1.65625l-0.390625 -0.859375l0.625 0l-0.265625 0.34375q0 -0.8125 0.453125 -1.28125q0.453125 -0.484375 1.1875 -0.484375q0.890625 0 1.390625 0.671875q0.515625 0.65625 0.515625 1.765625l0 7.265625l-1.78125 0l0 -7.1875q0 -0.5 -0.21875 -0.78125q-0.21875 -0.28125 -0.625 -0.28125q-0.421875 0 -0.65625 0.265625q-0.21875 0.265625 -0.21875 0.78125l0 7.203125l-1.484375 0l0 -7.1875q0 -0.53125 -0.234375 -0.796875q-0.21875 -0.265625 -0.625 -0.265625q-0.421875 0 -0.640625 0.265625q-0.203125 0.265625 -0.203125 0.78125l0 7.203125l-1.796875 0zm14.631226 0.171875q-1.78125 0 -2.8125 -1.0q-1.015625 -1.015625 -1.015625 -2.734375l0 -5.96875l2.015625 0l0 5.9375q0 0.953125 0.46875 1.484375q0.484375 0.515625 1.34375 0.515625q0.859375 0 1.34375 -0.515625q0.484375 -0.53125 0.484375 -1.484375l0 -5.9375l2.03125 0l0 5.96875q0 1.71875 -1.046875 2.734375q-1.046875 1.0 -2.8125 1.0zm6.1624146 -0.171875l0 -9.53125l1.6875 0l0 1.25l0.34375 0l-0.28125 0.34375q0 -0.8125 0.4375 -1.28125q0.453125 -0.484375 1.15625 -0.484375q0.78125 0 1.203125 0.625q0.421875 0.609375 0.421875 1.65625l-0.390625 -0.859375l0.625 0l-0.265625 0.34375q0 -0.8125 0.453125 -1.28125q0.453125 -0.484375 1.1875 -0.484375q0.890625 0 1.390625 0.671875q0.515625 0.65625 0.515625 1.765625l0 7.265625l-1.78125 0l0 -7.1875q0 -0.5 -0.21875 -0.78125q-0.21875 -0.28125 -0.625 -0.28125q-0.421875 0 -0.65625 0.265625q-0.21875 0.265625 -0.21875 0.78125l0 7.203125l-1.484375 0l0 -7.1875q0 -0.53125 -0.234375 -0.796875q-0.21875 -0.265625 -0.625 -0.265625q-0.421875 0 -0.640625 0.265625q-0.203125 0.265625 -0.203125 0.78125l0 7.203125l-1.796875 0zm20.79364 0l0 -9.53125l1.6875 0l0 1.25l0.34375 0l-0.28125 0.34375q0 -0.8125 0.4375 -1.28125q0.453125 -0.484375 1.15625 -0.484375q0.78125 0 1.203125 0.625q0.421875 0.609375 0.421875 1.65625l-0.390625 -0.859375l0.625 0l-0.265625 0.34375q0 -0.8125 0.453125 -1.28125q0.453125 -0.484375 1.1875 -0.484375q0.890625 0 1.390625 0.671875q0.515625 0.65625 0.515625 1.765625l0 7.265625l-1.78125 0l0 -7.1875q0 -0.5 -0.21875 -0.78125q-0.21875 -0.28125 -0.625 -0.28125q-0.421875 0 -0.65625 0.265625q-0.21875 0.265625 -0.21875 0.78125l0 7.203125l-1.484375 0l0 -7.1875q0 -0.53125 -0.234375 -0.796875q-0.21875 -0.265625 -0.625 -0.265625q-0.421875 0 -0.640625 0.265625q-0.203125 0.265625 -0.203125 0.78125l0 7.203125l-1.796875 0zm13.631226 0.171875q-1.46875 0 -2.328125 -0.765625q-0.859375 -0.78125 -0.859375 -2.109375q0 -1.390625 0.921875 -2.140625q0.9375 -0.765625 2.578125 -0.765625l2.515625 0l0 -0.859375q0 -0.71875 -0.46875 -1.125q-0.46875 -0.421875 -1.296875 -0.421875q-0.75 0 -1.25 0.328125q-0.484375 0.3125 -0.5625 0.859375l-1.984375 0q0.15625 -1.3125 1.203125 -2.09375q1.046875 -0.78125 2.640625 -0.78125q1.734375 0 2.734375 0.875q1.015625 0.859375 1.015625 2.34375l0 6.484375l-1.984375 0l0 -1.703125l-0.328125 0l0.359375 -0.40625q0 1.046875 -0.796875 1.671875q-0.796875 0.609375 -2.109375 0.609375zm0.640625 -1.53125q0.953125 0 1.5625 -0.484375q0.625 -0.5 0.625 -1.265625l0 -1.203125l-2.46875 0q-0.703125 0 -1.125 0.390625q-0.40625 0.390625 -0.40625 1.046875q0 0.703125 0.484375 1.109375q0.484375 0.40625 1.328125 0.40625zm11.80304 1.359375q-1.328125 0 -2.078125 -0.734375q-0.75 -0.734375 -0.75 -2.03125l0 -4.953125l-2.609375 0l0 -1.8125l2.609375 0l0 -2.6875l2.015625 0l0 2.6875l3.703125 0l0 1.8125l-3.703125 0l0 4.953125q0 0.953125 0.9375 0.953125l2.59375 0l0 1.8125l-2.71875 0zm9.428101 0.171875q-1.203125 0 -2.109375 -0.453125q-0.890625 -0.453125 -1.390625 -1.28125q-0.484375 -0.84375 -0.484375 -1.96875l0 -2.46875q0 -1.140625 0.484375 -1.96875q0.5 -0.828125 1.390625 -1.28125q0.90625 -0.453125 2.109375 -0.453125q1.75 0 2.796875 0.921875q1.0625 0.921875 1.125 2.484375l-2.015625 0q-0.046875 -0.765625 -0.5625 -1.203125q-0.5 -0.4375 -1.34375 -0.4375q-0.921875 0 -1.453125 0.5q-0.515625 0.5 -0.515625 1.4375l0 2.46875q0 0.921875 0.515625 1.4375q0.53125 0.5 1.453125 0.5q0.84375 0 1.34375 -0.421875q0.515625 -0.4375 0.5625 -1.21875l2.015625 0q-0.0625 1.578125 -1.125 2.5q-1.046875 0.90625 -2.796875 0.90625zm6.5217896 -0.171875l0 -12.65625l2.015625 0l0 3.125l-0.03125 1.8125l0.53125 0l-0.53125 0.46875q0 -1.15625 0.6875 -1.796875q0.6875 -0.65625 1.859375 -0.65625q1.421875 0 2.265625 0.921875q0.859375 0.921875 0.859375 2.484375l0 6.296875l-2.03125 0l0 -6.078125q0 -0.90625 -0.484375 -1.390625q-0.46875 -0.5 -1.296875 -0.5q-0.84375 0 -1.34375 0.515625q-0.484375 0.515625 -0.484375 1.453125l0 6.0l-2.015625 0zm10.365601 0l0 -1.84375l3.34375 0l0 -5.875l-2.921875 0l0 -1.8125l4.859375 0l0 7.6875l3.015625 0l0 1.84375l-8.296875 0zm4.140625 -11.15625q-0.640625 0 -1.015625 -0.3125q-0.359375 -0.328125 -0.359375 -0.890625q0 -0.5625 0.359375 -0.890625q0.375 -0.328125 1.015625 -0.328125q0.640625 0 1.0 0.328125q0.359375 0.328125 0.359375 0.890625q0 0.5625 -0.359375 0.890625q-0.359375 0.3125 -1.0 0.3125zm6.2874146 11.15625l0 -9.53125l1.984375 0l0 1.8125l0.53125 0l-0.53125 0.46875q0 -1.15625 0.6875 -1.796875q0.6875 -0.65625 1.859375 -0.65625q1.421875 0 2.265625 0.921875q0.859375 0.921875 0.859375 2.484375l0 6.296875l-2.03125 0l0 -6.078125q0 -0.90625 -0.484375 -1.390625q-0.46875 -0.484375 -1.296875 -0.484375q-0.84375 0 -1.34375 0.515625q-0.484375 0.5 -0.484375 1.4375l0 6.0l-2.015625 0zm11.678101 3.125l0 -1.71875l2.875 0q0.71875 0 1.078125 -0.359375q0.375 -0.34375 0.375 -1.0l0 -0.84375l0.03125 -1.765625l-0.453125 0l0.4375 -0.421875q0 1.125 -0.6875 1.765625q-0.671875 0.640625 -1.84375 0.640625q-1.46875 0 -2.328125 -0.96875q-0.84375 -0.984375 -0.84375 -2.640625l0 -1.890625q0 -1.671875 0.84375 -2.640625q0.859375 -0.984375 2.328125 -0.984375q1.171875 0 1.84375 0.640625q0.6875 0.640625 0.6875 1.765625l-0.4375 -0.421875l0.4375 0l-0.03125 -1.8125l2.015625 0l0 9.625q0 1.390625 -0.921875 2.203125q-0.90625 0.828125 -2.5 0.828125l-2.90625 0zm2.484375 -5.453125q0.859375 0 1.34375 -0.515625q0.484375 -0.515625 0.484375 -1.4375l0 -1.71875q0 -0.90625 -0.484375 -1.421875q-0.484375 -0.53125 -1.34375 -0.53125q-0.875 0 -1.359375 0.515625q-0.46875 0.5 -0.46875 1.4375l0 1.71875q0 0.9375 0.46875 1.453125q0.484375 0.5 1.359375 0.5z" fill-rule="nonzero"/><path fill="#000000" fill-opacity="0.0" d="m158.92914 67.72966l642.1417 0l0 43.968506l-642.1417 0z" fill-rule="evenodd"/><path fill="#595959" d="m216.33423 95.95391l0 -12.671875l7.765625 0l0 1.875l-5.78125 0l0 3.59375l5.328125 0l0 1.859375l-5.296875 0l0 5.34375l-2.015625 0zm14.14682 0.15625q-1.203125 0 -2.078125 -0.453125q-0.875 -0.453125 -1.359375 -1.28125q-0.484375 -0.84375 -0.484375 -1.984375l0 -2.390625q0 -1.15625 0.484375 -1.984375q0.484375 -0.84375 1.359375 -1.296875q0.875 -0.453125 2.078125 -0.453125q1.203125 0 2.0625 0.453125q0.875 0.453125 1.359375 1.296875q0.484375 0.828125 0.484375 1.953125l0 2.421875q0 1.140625 -0.484375 1.984375q-0.484375 0.828125 -1.359375 1.28125q-0.859375 0.453125 -2.0625 0.453125zm0 -1.765625q0.890625 0 1.390625 -0.5q0.515625 -0.5 0.515625 -1.453125l0 -2.390625q0 -0.984375 -0.515625 -1.46875q-0.5 -0.5 -1.390625 -0.5q-0.890625 0 -1.40625 0.5q-0.5 0.484375 -0.5 1.46875l0 2.390625q0 0.953125 0.5 1.453125q0.515625 0.5 1.40625 0.5zm6.89682 1.609375l0 -9.53125l1.921875 0l0 1.8125l0.5 0l-0.609375 1.140625q0 -1.546875 0.6875 -2.328125q0.6875 -0.796875 2.015625 -0.796875q1.546875 0 2.421875 0.953125q0.890625 0.9375 0.890625 2.609375l0 0.671875l-2.09375 0l0 -0.53125q0 -0.96875 -0.5 -1.484375q-0.484375 -0.515625 -1.359375 -0.515625q-0.875 0 -1.375 0.53125q-0.484375 0.515625 -0.484375 1.46875l0 6.0l-2.015625 0zm23.94989 0.15625q-1.0625 0 -1.859375 -0.328125q-0.78125 -0.34375 -1.25 -0.9375q-0.453125 -0.609375 -0.5 -1.421875l2.03125 0q0.046875 0.46875 0.46875 0.75q0.421875 0.28125 1.109375 0.28125l0.734375 0q0.828125 0 1.25 -0.328125q0.421875 -0.34375 0.421875 -0.890625q0 -0.515625 -0.375 -0.8125q-0.375 -0.3125 -1.125 -0.421875l-1.203125 -0.171875q-1.578125 -0.234375 -2.328125 -0.859375q-0.734375 -0.640625 -0.734375 -1.90625q0 -1.34375 0.875 -2.0625q0.875 -0.734375 2.59375 -0.734375l0.65625 0q1.546875 0 2.46875 0.703125q0.921875 0.6875 1.015625 1.859375l-2.015625 0q-0.0625 -0.390625 -0.453125 -0.640625q-0.375 -0.25 -1.015625 -0.25l-0.65625 0q-0.78125 0 -1.140625 0.28125q-0.34375 0.28125 -0.34375 0.84375q0 0.5 0.3125 0.75q0.3125 0.25 0.984375 0.359375l1.25 0.171875q1.640625 0.234375 2.421875 0.90625q0.78125 0.671875 0.78125 1.953125q0 1.375 -0.90625 2.140625q-0.90625 0.765625 -2.734375 0.765625l-0.734375 0zm10.74057 0.015625q-1.1875 0 -2.078125 -0.453125q-0.875 -0.46875 -1.359375 -1.296875q-0.484375 -0.84375 -0.484375 -1.953125l0 -2.46875q0 -1.109375 0.484375 -1.9375q0.484375 -0.84375 1.359375 -1.296875q0.890625 -0.46875 2.078125 -0.46875q1.1875 0 2.0625 0.46875q0.875 0.453125 1.359375 1.296875q0.484375 0.828125 0.484375 1.9375l0 1.71875l-5.890625 0l0 0.75q0 1.015625 0.515625 1.5625q0.515625 0.53125 1.484375 0.53125q0.78125 0 1.25 -0.28125q0.484375 -0.28125 0.59375 -0.78125l2.0 0q-0.21875 1.21875 -1.28125 1.953125q-1.0625 0.71875 -2.578125 0.71875zm1.96875 -5.625l0 -0.546875q0 -1.015625 -0.5 -1.5625q-0.484375 -0.546875 -1.46875 -0.546875q-0.953125 0 -1.46875 0.5625q-0.515625 0.546875 -0.515625 1.546875l0 0.40625l4.09375 -0.015625l-0.140625 0.15625zm9.45932 5.453125q-1.328125 0 -2.078125 -0.734375q-0.75 -0.734375 -0.75 -2.03125l0 -4.953125l-2.609375 0l0 -1.8125l2.609375 0l0 -2.6875l2.015625 0l0 2.6875l3.703125 0l0 1.8125l-3.703125 0l0 4.953125q0 0.953125 0.9375 0.953125l2.59375 0l0 1.8125l-2.71875 0zm19.76239 0.15625q-1.203125 0 -2.078125 -0.453125q-0.875 -0.453125 -1.359375 -1.28125q-0.484375 -0.84375 -0.484375 -1.984375l0 -2.390625q0 -1.15625 0.484375 -1.984375q0.484375 -0.84375 1.359375 -1.296875q0.875 -0.453125 2.078125 -0.453125q1.203125 0 2.0625 0.453125q0.875 0.453125 1.359375 1.296875q0.484375 0.828125 0.484375 1.953125l0 2.421875q0 1.140625 -0.484375 1.984375q-0.484375 0.828125 -1.359375 1.28125q-0.859375 0.453125 -2.0625 0.453125zm0 -1.765625q0.890625 0 1.390625 -0.5q0.515625 -0.5 0.515625 -1.453125l0 -2.390625q0 -0.984375 -0.515625 -1.46875q-0.5 -0.5 -1.390625 -0.5q-0.890625 0 -1.40625 0.5q-0.5 0.484375 -0.5 1.46875l0 2.390625q0 0.953125 0.5 1.453125q0.515625 0.5 1.40625 0.5zm8.818695 1.609375l0 -6.671875l-2.671875 0l0 -1.84375l2.671875 0l0 -1.484375q0 -1.21875 0.796875 -1.9375q0.796875 -0.71875 2.140625 -0.71875l2.796875 0l0 1.796875l-2.75 0q-0.453125 0 -0.71875 0.234375q-0.265625 0.234375 -0.265625 0.65625l0 1.453125l3.734375 0l0 1.84375l-3.734375 0l0 6.671875l-2.0 0zm22.028015 0.15625q-1.0625 0 -1.859375 -0.328125q-0.78125 -0.34375 -1.25 -0.9375q-0.453125 -0.609375 -0.5 -1.421875l2.03125 0q0.046875 0.46875 0.46875 0.75q0.421875 0.28125 1.109375 0.28125l0.734375 0q0.828125 0 1.25 -0.328125q0.421875 -0.34375 0.421875 -0.890625q0 -0.515625 -0.375 -0.8125q-0.375 -0.3125 -1.125 -0.421875l-1.203125 -0.171875q-1.578125 -0.234375 -2.328125 -0.859375q-0.734375 -0.640625 -0.734375 -1.90625q0 -1.34375 0.875 -2.0625q0.875 -0.734375 2.59375 -0.734375l0.65625 0q1.546875 0 2.46875 0.703125q0.921875 0.6875 1.015625 1.859375l-2.015625 0q-0.0625 -0.390625 -0.453125 -0.640625q-0.375 -0.25 -1.015625 -0.25l-0.65625 0q-0.78125 0 -1.140625 0.28125q-0.34375 0.28125 -0.34375 0.84375q0 0.5 0.3125 0.75q0.3125 0.25 0.984375 0.359375l1.25 0.171875q1.640625 0.234375 2.421875 0.90625q0.78125 0.671875 0.78125 1.953125q0 1.375 -0.90625 2.140625q-0.90625 0.765625 -2.734375 0.765625l-0.734375 0zm10.74057 0.015625q-1.1875 0 -2.078125 -0.453125q-0.875 -0.46875 -1.359375 -1.296875q-0.484375 -0.84375 -0.484375 -1.953125l0 -2.46875q0 -1.109375 0.484375 -1.9375q0.484375 -0.84375 1.359375 -1.296875q0.890625 -0.46875 2.078125 -0.46875q1.1875 0 2.0625 0.46875q0.875 0.453125 1.359375 1.296875q0.484375 0.828125 0.484375 1.9375l0 1.71875l-5.890625 0l0 0.75q0 1.015625 0.515625 1.5625q0.515625 0.53125 1.484375 0.53125q0.78125 0 1.25 -0.28125q0.484375 -0.28125 0.59375 -0.78125l2.0 0q-0.21875 1.21875 -1.28125 1.953125q-1.0625 0.71875 -2.578125 0.71875zm1.96875 -5.625l0 -0.546875q0 -1.015625 -0.5 -1.5625q-0.484375 -0.546875 -1.46875 -0.546875q-0.953125 0 -1.46875 0.5625q-0.515625 0.546875 -0.515625 1.546875l0 0.40625l4.09375 -0.015625l-0.140625 0.15625zm7.412445 5.625q-1.46875 0 -2.328125 -0.765625q-0.859375 -0.78125 -0.859375 -2.109375q0 -1.390625 0.921875 -2.140625q0.9375 -0.765625 2.578125 -0.765625l2.515625 0l0 -0.859375q0 -0.71875 -0.46875 -1.125q-0.46875 -0.421875 -1.296875 -0.421875q-0.75 0 -1.25 0.328125q-0.484375 0.3125 -0.5625 0.859375l-1.984375 0q0.15625 -1.3125 1.203125 -2.09375q1.046875 -0.78125 2.640625 -0.78125q1.734375 0 2.734375 0.875q1.015625 0.859375 1.015625 2.34375l0 6.484375l-1.984375 0l0 -1.703125l-0.328125 0l0.359375 -0.40625q0 1.046875 -0.796875 1.671875q-0.796875 0.609375 -2.109375 0.609375zm0.640625 -1.53125q0.953125 0 1.5625 -0.484375q0.625 -0.5 0.625 -1.265625l0 -1.203125l-2.46875 0q-0.703125 0 -1.125 0.390625q-0.40625 0.390625 -0.40625 1.046875q0 0.703125 0.484375 1.109375q0.484375 0.40625 1.328125 0.40625zm7.27182 1.359375l0 -9.53125l1.921875 0l0 1.8125l0.5 0l-0.609375 1.140625q0 -1.546875 0.6875 -2.328125q0.6875 -0.796875 2.015625 -0.796875q1.546875 0 2.421875 0.953125q0.890625 0.9375 0.890625 2.609375l0 0.671875l-2.09375 0l0 -0.53125q0 -0.96875 -0.5 -1.484375q-0.484375 -0.515625 -1.359375 -0.515625q-0.875 0 -1.375 0.53125q-0.484375 0.515625 -0.484375 1.46875l0 6.0l-2.015625 0zm13.95932 0.171875q-1.203125 0 -2.109375 -0.453125q-0.890625 -0.453125 -1.390625 -1.28125q-0.484375 -0.84375 -0.484375 -1.96875l0 -2.46875q0 -1.140625 0.484375 -1.96875q0.5 -0.828125 1.390625 -1.28125q0.90625 -0.453125 2.109375 -0.453125q1.75 0 2.796875 0.921875q1.0625 0.921875 1.125 2.484375l-2.015625 0q-0.046875 -0.765625 -0.5625 -1.203125q-0.5 -0.4375 -1.34375 -0.4375q-0.921875 0 -1.453125 0.5q-0.515625 0.5 -0.515625 1.4375l0 2.46875q0 0.921875 0.515625 1.4375q0.53125 0.5 1.453125 0.5q0.84375 0 1.34375 -0.421875q0.515625 -0.4375 0.5625 -1.21875l2.015625 0q-0.0625 1.578125 -1.125 2.5q-1.046875 0.90625 -2.796875 0.90625zm6.52182 -0.171875l0 -12.65625l2.015625 0l0 3.125l-0.03125 1.8125l0.53125 0l-0.53125 0.46875q0 -1.15625 0.6875 -1.796875q0.6875 -0.65625 1.859375 -0.65625q1.421875 0 2.265625 0.921875q0.859375 0.921875 0.859375 2.484375l0 6.296875l-2.03125 0l0 -6.078125q0 -0.90625 -0.484375 -1.390625q-0.46875 -0.5 -1.296875 -0.5q-0.84375 0 -1.34375 0.515625q-0.484375 0.515625 -0.484375 1.453125l0 6.0l-2.015625 0zm14.20932 0.171875q-1.1875 0 -2.078125 -0.453125q-0.875 -0.46875 -1.359375 -1.296875q-0.484375 -0.84375 -0.484375 -1.953125l0 -2.46875q0 -1.109375 0.484375 -1.9375q0.484375 -0.84375 1.359375 -1.296875q0.890625 -0.46875 2.078125 -0.46875q1.1875 0 2.0625 0.46875q0.875 0.453125 1.359375 1.296875q0.484375 0.828125 0.484375 1.9375l0 1.71875l-5.890625 0l0 0.75q0 1.015625 0.515625 1.5625q0.515625 0.53125 1.484375 0.53125q0.78125 0 1.25 -0.28125q0.484375 -0.28125 0.59375 -0.78125l2.0 0q-0.21875 1.21875 -1.28125 1.953125q-1.0625 0.71875 -2.578125 0.71875zm1.96875 -5.625l0 -0.546875q0 -1.015625 -0.5 -1.5625q-0.484375 -0.546875 -1.46875 -0.546875q-0.953125 0 -1.46875 0.5625q-0.515625 0.546875 -0.515625 1.546875l0 0.40625l4.09375 -0.015625l-0.140625 0.15625zm8.08432 5.609375q-1.0625 0 -1.859375 -0.328125q-0.78125 -0.34375 -1.25 -0.9375q-0.453125 -0.609375 -0.5 -1.421875l2.03125 0q0.046875 0.46875 0.46875 0.75q0.421875 0.28125 1.109375 0.28125l0.734375 0q0.828125 0 1.25 -0.328125q0.421875 -0.34375 0.421875 -0.890625q0 -0.515625 -0.375 -0.8125q-0.375 -0.3125 -1.125 -0.421875l-1.203125 -0.171875q-1.578125 -0.234375 -2.328125 -0.859375q-0.734375 -0.640625 -0.734375 -1.90625q0 -1.34375 0.875 -2.0625q0.875 -0.734375 2.59375 -0.734375l0.65625 0q1.546875 0 2.46875 0.703125q0.921875 0.6875 1.015625 1.859375l-2.015625 0q-0.0625 -0.390625 -0.453125 -0.640625q-0.375 -0.25 -1.015625 -0.25l-0.65625 0q-0.78125 0 -1.140625 0.28125q-0.34375 0.28125 -0.34375 0.84375q0 0.5 0.3125 0.75q0.3125 0.25 0.984375 0.359375l1.25 0.171875q1.640625 0.234375 2.421875 0.90625q0.78125 0.671875 0.78125 1.953125q0 1.375 -0.90625 2.140625q-0.90625 0.765625 -2.734375 0.765625l-0.734375 0zm10.74057 -7.03125q-0.71875 0 -1.15625 -0.390625q-0.421875 -0.390625 -0.421875 -1.015625q0 -0.640625 0.421875 -1.03125q0.4375 -0.390625 1.15625 -0.390625q0.703125 0 1.140625 0.390625q0.4375 0.390625 0.4375 1.03125q0 0.625 -0.4375 1.015625q-0.4375 0.390625 -1.140625 0.390625zm0 7.046875q-0.71875 0 -1.15625 -0.390625q-0.421875 -0.390625 -0.421875 -1.03125q0 -0.640625 0.421875 -1.015625q0.4375 -0.390625 1.15625 -0.390625q0.703125 0 1.140625 0.390625q0.4375 0.375 0.4375 1.015625q0 0.640625 -0.4375 1.03125q-0.4375 0.390625 -1.140625 0.390625zm23.51239 1.734375q-0.984375 0 -1.734375 -0.375q-0.734375 -0.359375 -1.125 -1.03125q-0.390625 -0.671875 -0.3125 -1.609375l0.171875 -2.703125q0.03125 -0.75 -0.296875 -1.109375q-0.328125 -0.375 -1.21875 -0.375l-2.0 0l0 -1.859375l2.0 0q0.890625 0 1.21875 -0.375q0.328125 -0.375 0.296875 -1.125l-0.171875 -2.75q-0.046875 -0.9375 0.328125 -1.59375q0.375 -0.671875 1.09375 -1.015625q0.734375 -0.359375 1.75 -0.359375l1.078125 0l0 1.84375l-0.859375 0q-0.671875 0 -1.046875 0.3125q-0.375 0.3125 -0.328125 0.96875l0.171875 2.734375q0.0625 1.0625 -0.59375 1.6875q-0.65625 0.625 -1.859375 0.625l0 -0.09375q1.1875 0 1.84375 0.65625q0.671875 0.640625 0.609375 1.6875l-0.171875 2.71875q-0.03125 0.625 0.34375 0.96875q0.375 0.328125 1.03125 0.328125l0.859375 0l0 1.84375l-1.078125 0zm3.14682 -1.90625l3.34375 -4.921875l-3.109375 -4.609375l2.296875 0l1.578125 2.484375q0.125 0.203125 0.234375 0.453125q0.125 0.25 0.203125 0.40625q0.046875 -0.15625 0.171875 -0.40625q0.125 -0.25 0.234375 -0.453125l1.578125 -2.484375l2.3125 0l-3.125 4.625l3.328125 4.90625l-2.296875 0l-1.765625 -2.734375q-0.125 -0.21875 -0.25 -0.46875q-0.125 -0.265625 -0.1875 -0.4375q-0.078125 0.171875 -0.203125 0.4375q-0.125 0.25 -0.265625 0.46875l-1.765625 2.734375l-2.3125 0zm11.131195 1.90625l0 -1.84375l0.84375 0q0.65625 0 1.03125 -0.328125q0.390625 -0.34375 0.359375 -0.96875l-0.171875 -2.71875q-0.078125 -1.046875 0.59375 -1.6875q0.671875 -0.65625 1.84375 -0.65625l0 0.09375q-1.171875 0 -1.84375 -0.625q-0.671875 -0.625 -0.59375 -1.6875l0.171875 -2.734375q0.03125 -0.65625 -0.34375 -0.96875q-0.375 -0.3125 -1.046875 -0.3125l-0.84375 0l0 -1.84375l1.078125 0q1.0 0 1.71875 0.359375q0.734375 0.34375 1.125 1.015625q0.390625 0.65625 0.328125 1.59375l-0.1875 2.75q-0.03125 0.75 0.296875 1.125q0.34375 0.375 1.21875 0.375l2.015625 0l0 1.859375l-2.015625 0q-0.875 0 -1.21875 0.375q-0.328125 0.359375 -0.296875 1.109375l0.1875 2.703125q0.0625 0.9375 -0.328125 1.609375q-0.390625 0.671875 -1.125 1.03125q-0.71875 0.375 -1.71875 0.375l-1.078125 0zm11.662445 0.859375l1.390625 -5.375l2.625 0l-2.25 5.375l-1.765625 0zm26.04364 -0.859375q-0.984375 0 -1.734375 -0.375q-0.734375 -0.359375 -1.125 -1.03125q-0.390625 -0.671875 -0.3125 -1.609375l0.171875 -2.703125q0.03125 -0.75 -0.296875 -1.109375q-0.328125 -0.375 -1.21875 -0.375l-2.0 0l0 -1.859375l2.0 0q0.890625 0 1.21875 -0.375q0.328125 -0.375 0.296875 -1.125l-0.171875 -2.75q-0.046875 -0.9375 0.328125 -1.59375q0.375 -0.671875 1.09375 -1.015625q0.734375 -0.359375 1.75 -0.359375l1.078125 0l0 1.84375l-0.859375 0q-0.671875 0 -1.046875 0.3125q-0.375 0.3125 -0.328125 0.96875l0.171875 2.734375q0.0625 1.0625 -0.59375 1.6875q-0.65625 0.625 -1.859375 0.625l0 -0.09375q1.1875 0 1.84375 0.65625q0.671875 0.640625 0.609375 1.6875l-0.171875 2.71875q-0.03125 0.625 0.34375 0.96875q0.375 0.328125 1.03125 0.328125l0.859375 0l0 1.84375l-1.078125 0zm3.14682 -1.90625l3.34375 -4.921875l-3.109375 -4.609375l2.296875 0l1.578125 2.484375q0.125 0.203125 0.234375 0.453125q0.125 0.25 0.203125 0.40625q0.046875 -0.15625 0.171875 -0.40625q0.125 -0.25 0.234375 -0.453125l1.578125 -2.484375l2.3125 0l-3.125 4.625l3.328125 4.90625l-2.296875 0l-1.765625 -2.734375q-0.125 -0.21875 -0.25 -0.46875q-0.125 -0.265625 -0.1875 -0.4375q-0.078125 0.171875 -0.203125 0.4375q-0.125 0.25 -0.265625 0.46875l-1.765625 2.734375l-2.3125 0zm12.39682 2.765625l1.390625 -5.375l2.625 0l-2.25 5.375l-1.765625 0zm21.04364 0.359375l1.359375 -3.65625l-3.546875 -9.0l2.21875 0l1.859375 5.125q0.140625 0.375 0.265625 0.890625q0.140625 0.515625 0.21875 0.859375q0.078125 -0.34375 0.203125 -0.859375q0.125 -0.515625 0.25 -0.890625l1.78125 -5.125l2.140625 0l-4.609375 12.65625l-2.140625 0zm8.881165 -1.21875l0 -1.84375l0.84375 0q0.65625 0 1.03125 -0.328125q0.390625 -0.34375 0.359375 -0.96875l-0.171875 -2.71875q-0.078125 -1.046875 0.59375 -1.6875q0.671875 -0.65625 1.84375 -0.65625l0 0.09375q-1.171875 0 -1.84375 -0.625q-0.671875 -0.625 -0.59375 -1.6875l0.171875 -2.734375q0.03125 -0.65625 -0.34375 -0.96875q-0.375 -0.3125 -1.046875 -0.3125l-0.84375 0l0 -1.84375l1.078125 0q1.0 0 1.71875 0.359375q0.734375 0.34375 1.125 1.015625q0.390625 0.65625 0.328125 1.59375l-0.1875 2.75q-0.03125 0.75 0.296875 1.125q0.34375 0.375 1.21875 0.375l2.015625 0l0 1.859375l-2.015625 0q-0.875 0 -1.21875 0.375q-0.328125 0.359375 -0.296875 1.109375l0.1875 2.703125q0.0625 0.9375 -0.328125 1.609375q-0.390625 0.671875 -1.125 1.03125q-0.71875 0.375 -1.71875 0.375l-1.078125 0zm11.662476 0.859375l1.390625 -5.375l2.625 0l-2.25 5.375l-1.765625 0zm26.04364 -0.859375q-0.984375 0 -1.734375 -0.375q-0.734375 -0.359375 -1.125 -1.03125q-0.390625 -0.671875 -0.3125 -1.609375l0.171875 -2.703125q0.03125 -0.75 -0.296875 -1.109375q-0.328125 -0.375 -1.21875 -0.375l-2.0 0l0 -1.859375l2.0 0q0.890625 0 1.21875 -0.375q0.328125 -0.375 0.296875 -1.125l-0.171875 -2.75q-0.046875 -0.9375 0.328125 -1.59375q0.375 -0.671875 1.09375 -1.015625q0.734375 -0.359375 1.75 -0.359375l1.078125 0l0 1.84375l-0.859375 0q-0.671875 0 -1.046875 0.3125q-0.375 0.3125 -0.328125 0.96875l0.171875 2.734375q0.0625 1.0625 -0.59375 1.6875q-0.65625 0.625 -1.859375 0.625l0 -0.09375q1.1875 0 1.84375 0.65625q0.671875 0.640625 0.609375 1.6875l-0.171875 2.71875q-0.03125 0.625 0.34375 0.96875q0.375 0.328125 1.03125 0.328125l0.859375 0l0 1.84375l-1.078125 0zm3.1467896 -1.90625l3.34375 -4.921875l-3.109375 -4.609375l2.296875 0l1.578125 2.484375q0.125 0.203125 0.234375 0.453125q0.125 0.25 0.203125 0.40625q0.046875 -0.15625 0.171875 -0.40625q0.125 -0.25 0.234375 -0.453125l1.578125 -2.484375l2.3125 0l-3.125 4.625l3.328125 4.90625l-2.296875 0l-1.765625 -2.734375q-0.125 -0.21875 -0.25 -0.46875q-0.125 -0.265625 -0.1875 -0.4375q-0.078125 0.171875 -0.203125 0.4375q-0.125 0.25 -0.265625 0.46875l-1.765625 2.734375l-2.3125 0zm12.396851 2.765625l1.390625 -5.375l2.625 0l-2.25 5.375l-1.765625 0zm19.528015 -2.765625l0 -1.875l5.0625 -5.875l-4.90625 0l0 -1.78125l7.234375 0l0 1.875l-5.125 5.875l5.328125 0l0 1.78125l-7.59375 0zm10.39679 1.90625l0 -1.84375l0.84375 0q0.65625 0 1.03125 -0.328125q0.390625 -0.34375 0.359375 -0.96875l-0.171875 -2.71875q-0.078125 -1.046875 0.59375 -1.6875q0.671875 -0.65625 1.84375 -0.65625l0 0.09375q-1.171875 0 -1.84375 -0.625q-0.671875 -0.625 -0.59375 -1.6875l0.171875 -2.734375q0.03125 -0.65625 -0.34375 -0.96875q-0.375 -0.3125 -1.046875 -0.3125l-0.84375 0l0 -1.84375l1.078125 0q1.0 0 1.71875 0.359375q0.734375 0.34375 1.125 1.015625q0.390625 0.65625 0.328125 1.59375l-0.1875 2.75q-0.03125 0.75 0.296875 1.125q0.34375 0.375 1.21875 0.375l2.015625 0l0 1.859375l-2.015625 0q-0.875 0 -1.21875 0.375q-0.328125 0.359375 -0.296875 1.109375l0.1875 2.703125q0.0625 0.9375 -0.328125 1.609375q-0.390625 0.671875 -1.125 1.03125q-0.71875 0.375 -1.71875 0.375l-1.078125 0zm11.662476 0.859375l1.390625 -5.375l2.625 0l-2.25 5.375l-1.765625 0zm26.04364 -0.859375q-0.984375 0 -1.734375 -0.375q-0.734375 -0.359375 -1.125 -1.03125q-0.390625 -0.671875 -0.3125 -1.609375l0.171875 -2.703125q0.03125 -0.75 -0.296875 -1.109375q-0.328125 -0.375 -1.21875 -0.375l-2.0 0l0 -1.859375l2.0 0q0.890625 0 1.21875 -0.375q0.328125 -0.375 0.296875 -1.125l-0.171875 -2.75q-0.046875 -0.9375 0.328125 -1.59375q0.375 -0.671875 1.09375 -1.015625q0.734375 -0.359375 1.75 -0.359375l1.078125 0l0 1.84375l-0.859375 0q-0.671875 0 -1.046875 0.3125q-0.375 0.3125 -0.328125 0.96875l0.171875 2.734375q0.0625 1.0625 -0.59375 1.6875q-0.65625 0.625 -1.859375 0.625l0 -0.09375q1.1875 0 1.84375 0.65625q0.671875 0.640625 0.609375 1.6875l-0.171875 2.71875q-0.03125 0.625 0.34375 0.96875q0.375 0.328125 1.03125 0.328125l0.859375 0l0 1.84375l-1.078125 0zm3.1467896 -1.90625l3.34375 -4.921875l-3.109375 -4.609375l2.296875 0l1.578125 2.484375q0.125 0.203125 0.234375 0.453125q0.125 0.25 0.203125 0.40625q0.046875 -0.15625 0.171875 -0.40625q0.125 -0.25 0.234375 -0.453125l1.578125 -2.484375l2.312561 0l-3.125061 4.625l3.328186 4.90625l-2.296936 0l-1.765625 -2.734375q-0.125 -0.21875 -0.25 -0.46875q-0.125 -0.265625 -0.1875 -0.4375q-0.078125 0.171875 -0.203125 0.4375q-0.125 0.25 -0.265625 0.46875l-1.765625 2.734375l-2.3125 0zm12.396851 2.765625l1.390625 -5.375l2.625 0l-2.25 5.375l-1.765625 0zm21.04364 0.359375l1.359375 -3.65625l-3.546875 -9.0l2.21875 0l1.859375 5.125q0.140625 0.375 0.265625 0.890625q0.140625 0.515625 0.21875 0.859375q0.078125 -0.34375 0.203125 -0.859375q0.125 -0.515625 0.25 -0.890625l1.78125 -5.125l2.140625 0l-4.609375 12.65625l-2.140625 0zm10.146851 -0.359375l1.390625 -5.375l2.625 0l-2.25 5.375l-1.765625 0zm19.527954 -2.765625l0 -1.875l5.0625 -5.875l-4.90625 0l0 -1.78125l7.234375 0l0 1.875l-5.125 5.875l5.328125 0l0 1.78125l-7.59375 0zm10.396851 1.90625l0 -1.84375l0.84375 0q0.65625 0 1.03125 -0.328125q0.390625 -0.34375 0.359375 -0.96875l-0.171875 -2.71875q-0.078125 -1.046875 0.59375 -1.6875q0.671875 -0.65625 1.84375 -0.65625l0 0.09375q-1.171875 0 -1.84375 -0.625q-0.671875 -0.625 -0.59375 -1.6875l0.171875 -2.734375q0.03125 -0.65625 -0.34375 -0.96875q-0.375 -0.3125 -1.046875 -0.3125l-0.84375 0l0 -1.84375l1.078125 0q1.0 0 1.71875 0.359375q0.734375 0.34375 1.125 1.015625q0.390625 0.65625 0.328125 1.59375l-0.1875 2.75q-0.03125 0.75 0.296875 1.125q0.34375 0.375 1.21875 0.375l2.015625 0l0 1.859375l-2.015625 0q-0.875 0 -1.21875 0.375q-0.328125 0.359375 -0.296875 1.109375l0.1875 2.703125q0.0625 0.9375 -0.328125 1.609375q-0.390625 0.671875 -1.125 1.03125q-0.71875 0.375 -1.71875 0.375l-1.078125 0z" fill-rule="nonzero"/></g></svg>