<svg version="1.1" viewBox="0.0 0.0 960.0 540.0" fill="none" stroke="none" stroke-linecap="square" stroke-miterlimit="10" xmlns:xlink="http://www.w3.org/1999/xlink" xmlns="http://www.w3.org/2000/svg"><clipPath id="g2ccf07d927c_1_174.0"><path d="m0 0l960.0 0l0 540.0l-960.0 0l0 -540.0z" clip-rule="nonzero"/></clipPath><g clip-path="url(#g2ccf07d927c_1_174.0)"><path fill="#ffffff" d="m0 0l960.0 0l0 540.0l-960.0 0z" fill-rule="evenodd"/><path fill="#000000" fill-opacity="0.0" d="m334.9239 49.212597l258.17322 0l0 72.81889l-258.17322 0z" fill-rule="evenodd"/><path fill="#595959" d="m356.07642 80.09642q-1.765625 0 -3.046875 -0.578125q-1.265625 -0.59375 -1.96875 -1.6875q-0.6875 -1.09375 -0.6875 -2.59375l2.5625 0q0 1.1875 0.84375 1.875q0.84375 0.6875 2.328125 0.6875q1.390625 0 2.171875 -0.671875q0.796875 -0.671875 0.796875 -1.84375q0 -0.984375 -0.546875 -1.703125q-0.53125 -0.734375 -1.53125 -0.984375l-2.21875 -0.65625q-1.90625 -0.546875 -2.953125 -1.875q-1.046875 -1.34375 -1.046875 -3.1875q0 -1.4375 0.640625 -2.515625q0.65625 -1.078125 1.84375 -1.671875q1.203125 -0.609375 2.84375 -0.609375q2.40625 0 3.84375 1.296875q1.453125 1.296875 1.484375 3.46875l-2.59375 0q0 -1.140625 -0.734375 -1.796875q-0.734375 -0.671875 -2.046875 -0.671875q-1.28125 0 -2.0 0.625q-0.71875 0.609375 -0.71875 1.703125q0 0.984375 0.53125 1.703125q0.546875 0.71875 1.5625 1.015625l2.234375 0.671875q1.921875 0.53125 2.953125 1.875q1.03125 1.34375 1.03125 3.203125q0 1.46875 -0.703125 2.59375q-0.6875 1.109375 -1.9375 1.71875q-1.25 0.609375 -2.9375 0.609375zm14.337463 0q-1.609375 0 -2.828125 -0.625q-1.203125 -0.640625 -1.859375 -1.796875q-0.640625 -1.15625 -0.640625 -2.6875l0 -3.453125q0 -1.5625 0.640625 -2.703125q0.65625 -1.140625 1.859375 -1.765625q1.21875 -0.640625 2.828125 -0.640625q1.625 0 2.828125 0.640625q1.203125 0.625 1.84375 1.765625q0.65625 1.140625 0.65625 2.703125l0 2.359375l-8.15625 0l0 1.09375q0 1.46875 0.71875 2.234375q0.734375 0.765625 2.125 0.765625q1.140625 0 1.828125 -0.390625q0.703125 -0.390625 0.859375 -1.171875l2.578125 0q-0.296875 1.6875 -1.734375 2.6875q-1.4375 0.984375 -3.546875 0.984375zm2.828125 -7.765625l0 -0.828125q0 -1.4375 -0.71875 -2.21875q-0.71875 -0.796875 -2.109375 -0.796875q-1.375 0 -2.109375 0.796875q-0.71875 0.78125 -0.71875 2.25l0 0.59375l5.84375 -0.015625l-0.1875 0.21875zm11.665588 7.765625q-1.640625 0 -2.875 -0.609375q-1.234375 -0.609375 -1.890625 -1.765625q-0.65625 -1.171875 -0.65625 -2.734375l0 -3.453125q0 -1.578125 0.65625 -2.734375q0.65625 -1.15625 1.890625 -1.765625q1.234375 -0.609375 2.875 -0.609375q2.375 0 3.8125 1.25q1.4375 1.25 1.515625 3.40625l-2.59375 0q-0.078125 -1.125 -0.796875 -1.75q-0.71875 -0.625 -1.9375 -0.625q-1.328125 0 -2.09375 0.734375q-0.765625 0.71875 -0.765625 2.0625l0 3.484375q0 1.34375 0.765625 2.09375q0.765625 0.734375 2.09375 0.734375q1.21875 0 1.9375 -0.609375q0.71875 -0.625 0.796875 -1.765625l2.59375 0q-0.078125 2.171875 -1.515625 3.421875q-1.4375 1.234375 -3.8125 1.234375zm14.306213 -0.015625q-1.640625 0 -2.84375 -0.625q-1.1875 -0.625 -1.84375 -1.78125q-0.640625 -1.15625 -0.640625 -2.703125l0 -3.40625q0 -1.59375 0.640625 -2.734375q0.65625 -1.140625 1.84375 -1.765625q1.203125 -0.625 2.84375 -0.625q1.625 0 2.828125 0.625q1.203125 0.625 1.84375 1.765625q0.65625 1.140625 0.65625 2.734375l0 3.40625q0 1.546875 -0.65625 2.703125q-0.640625 1.15625 -1.84375 1.78125q-1.203125 0.625 -2.828125 0.625zm0 -2.28125q1.3125 0 2.03125 -0.734375q0.71875 -0.734375 0.71875 -2.09375l0 -3.40625q0 -1.40625 -0.71875 -2.125q-0.71875 -0.71875 -2.03125 -0.71875q-1.296875 0 -2.03125 0.71875q-0.734375 0.71875 -0.734375 2.125l0 3.40625q0 1.359375 0.734375 2.09375q0.734375 0.734375 2.03125 0.734375zm9.212463 2.0625l0 -13.203125l2.5625 0l0 2.515625l0.625 0l-0.625 0.609375q0 -1.578125 0.9375 -2.46875q0.9375 -0.890625 2.59375 -0.890625q1.96875 0 3.140625 1.265625q1.1875 1.25 1.1875 3.390625l0 8.78125l-2.59375 0l0 -8.5q0 -1.296875 -0.703125 -1.984375q-0.6875 -0.703125 -1.890625 -0.703125q-1.21875 0 -1.9375 0.734375q-0.703125 0.734375 -0.703125 2.125l0 8.328125l-2.59375 0zm18.649963 0.234375q-2.0 0 -3.203125 -1.34375q-1.1875 -1.34375 -1.1875 -3.625l0 -3.71875q0 -2.296875 1.1875 -3.640625q1.203125 -1.34375 3.203125 -1.34375q1.625 0 2.578125 0.90625q0.96875 0.890625 0.96875 2.453125l-0.546875 -0.609375l0.59375 0l-0.0625 -3.0625l0 -3.765625l2.59375 0l0 17.515625l-2.578125 0l0 -2.515625l-0.546875 0l0.546875 -0.609375q0 1.5625 -0.96875 2.46875q-0.953125 0.890625 -2.578125 0.890625zm0.890625 -2.25q1.21875 0 1.921875 -0.75q0.71875 -0.765625 0.71875 -2.109375l0 -3.453125q0 -1.34375 -0.71875 -2.09375q-0.703125 -0.765625 -1.921875 -0.765625q-1.28125 0 -2.0 0.734375q-0.71875 0.734375 -0.71875 2.125l0 3.453125q0 1.390625 0.71875 2.125q0.71875 0.734375 2.0 0.734375zm24.003052 2.015625l0 -2.296875l3.515625 0l0 -12.921875l-3.515625 0l0 -2.296875l9.6875 0l0 2.296875l-3.53125 0l0 12.921875l3.53125 0l0 2.296875l-9.6875 0zm20.681213 0q-1.796875 0 -2.8125 -0.984375q-1.0 -0.984375 -1.0 -2.734375l0 -7.125l-3.65625 0l0 -2.359375l3.65625 0l0 -3.71875l2.59375 0l0 3.71875l5.15625 0l0 2.359375l-5.15625 0l0 7.125q0 1.359375 1.3125 1.359375l3.609375 0l0 2.359375l-3.703125 0zm12.962463 0.234375q-1.609375 0 -2.828125 -0.625q-1.203125 -0.640625 -1.859375 -1.796875q-0.640625 -1.15625 -0.640625 -2.6875l0 -3.453125q0 -1.5625 0.640625 -2.703125q0.65625 -1.140625 1.859375 -1.765625q1.21875 -0.640625 2.828125 -0.640625q1.625 0 2.828125 0.640625q1.203125 0.625 1.84375 1.765625q0.65625 1.140625 0.65625 2.703125l0 2.359375l-8.15625 0l0 1.09375q0 1.46875 0.71875 2.234375q0.734375 0.765625 2.125 0.765625q1.140625 0 1.828125 -0.390625q0.703125 -0.390625 0.859375 -1.171875l2.578125 0q-0.296875 1.6875 -1.734375 2.6875q-1.4375 0.984375 -3.546875 0.984375zm2.828125 -7.765625l0 -0.828125q0 -1.4375 -0.71875 -2.21875q-0.71875 -0.796875 -2.109375 -0.796875q-1.375 0 -2.109375 0.796875q-0.71875 0.78125 -0.71875 2.25l0 0.59375l5.84375 -0.015625l-0.1875 0.21875zm6.8218384 7.53125l0 -13.203125l2.484375 0l0 2.515625l0.625 0l-0.78125 1.5625q0 -2.125 0.921875 -3.21875q0.9375 -1.09375 2.796875 -1.09375q2.109375 0 3.34375 1.3125q1.234375 1.296875 1.234375 3.578125l0 0.890625l-2.65625 0l0 -0.671875q0 -1.421875 -0.71875 -2.171875q-0.703125 -0.75 -1.96875 -0.75q-1.28125 0 -1.984375 0.765625q-0.703125 0.765625 -0.703125 2.15625l0 8.328125l-2.59375 0zm17.821838 0.234375q-2.0625 0 -3.25 -1.0625q-1.1875 -1.0625 -1.1875 -2.921875q0 -1.859375 1.25 -2.921875q1.265625 -1.078125 3.484375 -1.078125l3.671875 0l0 -1.21875q0 -1.09375 -0.671875 -1.6875q-0.671875 -0.59375 -1.90625 -0.59375q-1.078125 0 -1.796875 0.46875q-0.71875 0.46875 -0.84375 1.234375l-2.53125 0q0.203125 -1.78125 1.625 -2.828125q1.4375 -1.0625 3.625 -1.0625q2.359375 0 3.71875 1.1875q1.375 1.1875 1.375 3.21875l0 9.03125l-2.53125 0l0 -2.421875l-0.421875 0l0.421875 -0.484375q0 1.4375 -1.109375 2.296875q-1.09375 0.84375 -2.921875 0.84375zm0.765625 -1.984375q1.40625 0 2.296875 -0.703125q0.90625 -0.71875 0.90625 -1.8125l0 -1.734375l-3.625 0q-1.015625 0 -1.609375 0.5625q-0.578125 0.546875 -0.578125 1.5q0 1.015625 0.6875 1.609375q0.703125 0.578125 1.921875 0.578125zm16.399963 1.75q-1.796875 0 -2.8125 -0.984375q-1.0 -0.984375 -1.0 -2.734375l0 -7.125l-3.65625 0l0 -2.359375l3.65625 0l0 -3.71875l2.59375 0l0 3.71875l5.15625 0l0 2.359375l-5.15625 0l0 7.125q0 1.359375 1.3125 1.359375l3.609375 0l0 2.359375l-3.703125 0zm7.6968384 0l0 -2.359375l4.640625 0l0 -8.484375l-4.03125 0l0 -2.359375l6.546875 0l0 10.84375l4.25 0l0 2.359375l-11.40625 0zm5.65625 -15.484375q-0.84375 0 -1.34375 -0.4375q-0.5 -0.453125 -0.5 -1.1875q0 -0.765625 0.5 -1.203125q0.5 -0.453125 1.34375 -0.453125q0.84375 0 1.34375 0.453125q0.5 0.4375 0.5 1.203125q0 0.734375 -0.5 1.1875q-0.5 0.4375 -1.34375 0.4375zm14.009338 15.703125q-1.640625 0 -2.84375 -0.625q-1.1875 -0.625 -1.84375 -1.78125q-0.640625 -1.15625 -0.640625 -2.703125l0 -3.40625q0 -1.59375 0.640625 -2.734375q0.65625 -1.140625 1.84375 -1.765625q1.203125 -0.625 2.84375 -0.625q1.625 0 2.828125 0.625q1.203125 0.625 1.84375 1.765625q0.65625 1.140625 0.65625 2.734375l0 3.40625q0 1.546875 -0.65625 2.703125q-0.640625 1.15625 -1.84375 1.78125q-1.203125 0.625 -2.828125 0.625zm0 -2.28125q1.3125 0 2.03125 -0.734375q0.71875 -0.734375 0.71875 -2.09375l0 -3.40625q0 -1.40625 -0.71875 -2.125q-0.71875 -0.71875 -2.03125 -0.71875q-1.296875 0 -2.03125 0.71875q-0.734375 0.71875 -0.734375 2.125l0 3.40625q0 1.359375 0.734375 2.09375q0.734375 0.734375 2.03125 0.734375zm9.212463 2.0625l0 -13.203125l2.5625 0l0 2.515625l0.625 0l-0.625 0.609375q0 -1.578125 0.9375 -2.46875q0.9375 -0.890625 2.59375 -0.890625q1.96875 0 3.140625 1.265625q1.1875 1.25 1.1875 3.390625l0 8.78125l-2.59375 0l0 -8.5q0 -1.296875 -0.703125 -1.984375q-0.6875 -0.703125 -1.890625 -0.703125q-1.21875 0 -1.9375 0.734375q-0.703125 0.734375 -0.703125 2.125l0 8.328125l-2.59375 0z" fill-rule="nonzero"/><path fill="#000000" d="m384.0951 108.89642q-2.59375 0 -4.09375 -1.4375q-1.484375 -1.4375 -1.484375 -3.90625l2.578125 0q0 1.46875 0.78125 2.265625q0.796875 0.796875 2.21875 0.796875q1.40625 0 2.203125 -0.796875q0.796875 -0.796875 0.796875 -2.25l0 -10.046875l-4.125 0l0 -2.375l6.6875 0l0 12.421875q0 2.484375 -1.5 3.90625q-1.5 1.421875 -4.0625 1.421875zm15.118713 -0.015625q-1.640625 0 -2.84375 -0.625q-1.1875 -0.625 -1.84375 -1.78125q-0.640625 -1.15625 -0.640625 -2.703125l0 -3.40625q0 -1.59375 0.640625 -2.734375q0.65625 -1.140625 1.84375 -1.765625q1.203125 -0.625 2.84375 -0.625q1.625 0 2.828125 0.625q1.203125 0.625 1.84375 1.765625q0.65625 1.140625 0.65625 2.734375l0 3.40625q0 1.546875 -0.65625 2.703125q-0.640625 1.15625 -1.84375 1.78125q-1.203125 0.625 -2.828125 0.625zm0 -2.28125q1.3125 0 2.03125 -0.734375q0.71875 -0.734375 0.71875 -2.09375l0 -3.40625q0 -1.40625 -0.71875 -2.125q-0.71875 -0.71875 -2.03125 -0.71875q-1.296875 0 -2.03125 0.71875q-0.734375 0.71875 -0.734375 2.125l0 3.40625q0 1.359375 0.734375 2.09375q0.734375 0.734375 2.03125 0.734375zm9.134338 2.0625l0 -2.359375l4.640625 0l0 -8.484375l-4.03125 0l0 -2.359375l6.546875 0l0 10.84375l4.25 0l0 2.359375l-11.40625 0zm5.65625 -15.484375q-0.84375 0 -1.34375 -0.4375q-0.5 -0.453125 -0.5 -1.1875q0 -0.765625 0.5 -1.203125q0.5 -0.453125 1.34375 -0.453125q0.84375 0 1.34375 0.453125q0.5 0.4375 0.5 1.203125q0 0.734375 -0.5 1.1875q-0.5 0.4375 -1.34375 0.4375zm8.821838 15.484375l0 -13.203125l2.5625 0l0 2.515625l0.625 0l-0.625 0.609375q0 -1.578125 0.9375 -2.46875q0.9375 -0.890625 2.59375 -0.890625q1.96875 0 3.140625 1.265625q1.1875 1.25 1.1875 3.390625l0 8.78125l-2.59375 0l0 -8.5q0 -1.296875 -0.703125 -1.984375q-0.6875 -0.703125 -1.890625 -0.703125q-1.21875 0 -1.9375 0.734375q-0.703125 0.734375 -0.703125 2.125l0 8.328125l-2.59375 0zm32.331177 0.234375q-2.0625 0 -3.21875 -1.125q-1.15625 -1.125 -1.15625 -3.125l0 -2.609375q0 -1.4375 0.734375 -2.375q0.734375 -0.953125 2.078125 -1.265625l-0.234375 0.203125q-0.75 -1.0 -1.109375 -1.921875q-0.359375 -0.921875 -0.359375 -1.84375q0 -1.171875 0.546875 -2.0625q0.5625 -0.890625 1.5625 -1.375q1.015625 -0.5 2.359375 -0.5q1.40625 0 2.453125 0.53125q1.046875 0.53125 1.625 1.46875q0.578125 0.9375 0.578125 2.25l-2.5 0q0 -0.640625 -0.265625 -1.109375q-0.265625 -0.46875 -0.75 -0.703125q-0.46875 -0.25 -1.140625 -0.25q-0.609375 0 -1.078125 0.234375q-0.46875 0.21875 -0.703125 0.640625q-0.234375 0.421875 -0.234375 1.015625q0 0.578125 0.265625 1.28125q0.28125 0.6875 0.765625 1.359375l3.71875 5.1875l1.5 -2.78125l2.59375 0l-2.640625 4.828125l2.75 3.8125l-2.703125 0l-1.3125 -1.828125q-1.734375 2.0625 -4.125 2.0625zm0.1875 -2.203125q0.75 0 1.421875 -0.453125q0.6875 -0.453125 1.171875 -1.28125l-3.40625 -4.71875q-0.625 0.140625 -0.921875 0.609375q-0.296875 0.46875 -0.296875 1.1875l0 2.609375q0 0.96875 0.53125 1.515625q0.546875 0.53125 1.5 0.53125zm24.643677 1.96875l0 -17.515625l3.203125 0l1.75 5.609375q0.265625 0.796875 0.453125 1.53125q0.1875 0.734375 0.265625 1.09375q0.09375 -0.359375 0.265625 -1.09375q0.1875 -0.734375 0.421875 -1.53125l1.6875 -5.609375l3.1875 0l0 17.515625l-2.4375 0l0 -5.90625q0 -1.125 0.046875 -2.5q0.0625 -1.390625 0.1875 -2.78125q0.125 -1.40625 0.234375 -2.6875q0.125 -1.296875 0.21875 -2.25l-2.59375 8.515625l-2.5 0l-2.625 -8.515625q0.109375 0.9375 0.234375 2.171875q0.125 1.234375 0.21875 2.625q0.09375 1.390625 0.15625 2.796875q0.078125 1.40625 0.078125 2.625l0 5.90625l-2.453125 0zm20.024963 0.234375q-1.609375 0 -2.828125 -0.625q-1.203125 -0.640625 -1.859375 -1.796875q-0.640625 -1.15625 -0.640625 -2.6875l0 -3.453125q0 -1.5625 0.640625 -2.703125q0.65625 -1.140625 1.859375 -1.765625q1.21875 -0.640625 2.828125 -0.640625q1.625 0 2.828125 0.640625q1.203125 0.625 1.84375 1.765625q0.65625 1.140625 0.65625 2.703125l0 2.359375l-8.15625 0l0 1.09375q0 1.46875 0.71875 2.234375q0.734375 0.765625 2.125 0.765625q1.140625 0 1.828125 -0.390625q0.703125 -0.390625 0.859375 -1.171875l2.578125 0q-0.296875 1.6875 -1.734375 2.6875q-1.4375 0.984375 -3.546875 0.984375zm2.828125 -7.765625l0 -0.828125q0 -1.4375 -0.71875 -2.21875q-0.71875 -0.796875 -2.109375 -0.796875q-1.375 0 -2.109375 0.796875q-0.71875 0.78125 -0.71875 2.25l0 0.59375l5.84375 -0.015625l-0.1875 0.21875zm6.8218384 7.53125l0 -13.203125l2.484375 0l0 2.515625l0.625 0l-0.78125 1.5625q0 -2.125 0.921875 -3.21875q0.9375 -1.09375 2.796875 -1.09375q2.109375 0 3.34375 1.3125q1.234375 1.296875 1.234375 3.578125l0 0.890625l-2.65625 0l0 -0.671875q0 -1.421875 -0.71875 -2.171875q-0.703125 -0.75 -1.96875 -0.75q-1.28125 0 -1.984375 0.765625q-0.703125 0.765625 -0.703125 2.15625l0 8.328125l-2.59375 0zm15.696838 4.3125l0 -2.21875l4.046875 0q1.015625 0 1.5 -0.484375q0.5 -0.484375 0.5 -1.421875l0 -1.3125l0.046875 -2.453125l-0.5625 0l0.53125 -0.484375q0 1.515625 -0.953125 2.390625q-0.9375 0.859375 -2.546875 0.859375q-2.046875 0 -3.21875 -1.34375q-1.171875 -1.34375 -1.171875 -3.625l0 -2.6875q0 -2.28125 1.171875 -3.625q1.171875 -1.34375 3.21875 -1.34375q1.609375 0 2.546875 0.875q0.953125 0.875 0.953125 2.390625l-0.53125 -0.515625l0.53125 0l-0.015625 -2.515625l2.5625 0l0 13.4375q0 1.90625 -1.203125 2.984375q-1.203125 1.09375 -3.328125 1.09375l-4.078125 0zm3.40625 -7.359375q1.21875 0 1.921875 -0.75q0.71875 -0.765625 0.71875 -2.109375l0 -2.421875q0 -1.34375 -0.71875 -2.09375q-0.703125 -0.765625 -1.921875 -0.765625q-1.28125 0 -1.96875 0.734375q-0.671875 0.734375 -0.671875 2.125l0 2.421875q0 1.375 0.671875 2.125q0.6875 0.734375 1.96875 0.734375zm14.446838 3.28125q-1.609375 0 -2.828125 -0.625q-1.203125 -0.640625 -1.859375 -1.796875q-0.640625 -1.15625 -0.640625 -2.6875l0 -3.453125q0 -1.5625 0.640625 -2.703125q0.65625 -1.140625 1.859375 -1.765625q1.21875 -0.640625 2.828125 -0.640625q1.625 0 2.828125 0.640625q1.203125 0.625 1.84375 1.765625q0.65625 1.140625 0.65625 2.703125l0 2.359375l-8.15625 0l0 1.09375q0 1.46875 0.71875 2.234375q0.734375 0.765625 2.125 0.765625q1.140625 0 1.828125 -0.390625q0.703125 -0.390625 0.859375 -1.171875l2.578125 0q-0.296875 1.6875 -1.734375 2.6875q-1.4375 0.984375 -3.546875 0.984375zm2.828125 -7.765625l0 -0.828125q0 -1.4375 -0.71875 -2.21875q-0.71875 -0.796875 -2.109375 -0.796875q-1.375 0 -2.109375 0.796875q-0.71875 0.78125 -0.71875 2.25l0 0.59375l5.84375 -0.015625l-0.1875 0.21875z" fill-rule="nonzero"/><path fill="#000000" fill-opacity="0.0" d="m446.15616 173.95016l35.68506 0l0 33.76378l-35.68506 0z" fill-rule="evenodd"/><path fill="#595959" d="m463.85492 196.7483q-1.109375 0 -1.921875 -0.40625q-0.8125 -0.421875 -1.25 -1.171875q-0.4375 -0.765625 -0.4375 -1.78125l1.71875 0q0 0.890625 0.5 1.390625q0.515625 0.484375 1.40625 0.484375q0.90625 0 1.40625 -0.515625q0.5 -0.515625 0.5 -1.359375l0 -0.859375q0 -0.890625 -0.5 -1.375q-0.5 -0.5 -1.40625 -0.5l-1.25 0l0 -1.625l2.71875 -2.59375l-4.609375 0l0 -1.53125l6.375 0l0 1.640625l-3.21875 3.015625l0 -0.40625q1.671875 0 2.640625 0.921875q0.96875 0.90625 0.96875 2.4375l0 0.875q0 1.015625 -0.453125 1.78125q-0.4375 0.75 -1.265625 1.171875q-0.8125 0.40625 -1.921875 0.40625z" fill-rule="nonzero"/><path fill="#000000" fill-opacity="0.0" d="m446.1597 190.82152l0 0c0 -10.202042 7.988373 -18.472443 17.84253 -18.472443l0 0c4.7321167 0 9.270447 1.9461975 12.616547 5.4104614c3.3461304 3.4642487 5.225952 8.162796 5.225952 13.061981l0 0c0 10.202057 -7.9883423 18.472443 -17.842499 18.472443l0 0c-9.8541565 0 -17.84253 -8.270386 -17.84253 -18.472443z" fill-rule="evenodd"/><path stroke="#595959" stroke-width="2.0" stroke-linejoin="round" stroke-linecap="butt" d="m446.1597 190.82152l0 0c0 -10.202042 7.988373 -18.472443 17.84253 -18.472443l0 0c4.7321167 0 9.270447 1.9461975 12.616547 5.4104614c3.3461304 3.4642487 5.225952 8.162796 5.225952 13.061981l0 0c0 10.202057 -7.9883423 18.472443 -17.842499 18.472443l0 0c-9.8541565 0 -17.84253 -8.270386 -17.84253 -18.472443z" fill-rule="evenodd"/><path fill="#000000" fill-opacity="0.0" d="m446.15485 353.3045l35.68506 0l0 33.763763l-35.68506 0z" fill-rule="evenodd"/><path fill="#595959" d="m460.55673 375.94638l0 -1.71875l3.609375 -3.71875q0.84375 -0.859375 1.234375 -1.5625q0.390625 -0.703125 0.390625 -1.390625q0 -0.890625 -0.5 -1.390625q-0.484375 -0.515625 -1.328125 -0.515625q-0.921875 0 -1.46875 0.53125q-0.53125 0.53125 -0.53125 1.46875l-1.71875 0q0.03125 -1.09375 0.484375 -1.875q0.46875 -0.796875 1.296875 -1.234375q0.828125 -0.4375 1.953125 -0.4375q1.078125 0 1.875 0.421875q0.796875 0.40625 1.21875 1.171875q0.4375 0.75 0.4375 1.765625q0 1.046875 -0.53125 2.046875q-0.53125 0.984375 -1.75 2.203125l-2.640625 2.671875l5.109375 0l0 1.5625l-7.140625 0z" fill-rule="nonzero"/><path fill="#000000" fill-opacity="0.0" d="m446.1584 370.17584l0 0c0 -10.202026 7.988373 -18.472443 17.84253 -18.472443l0 0c4.7321167 0 9.270447 1.9461975 12.616547 5.4104614c3.3461304 3.464264 5.225952 8.162781 5.225952 13.061981l0 0c0 10.202057 -7.9883423 18.472443 -17.842499 18.472443l0 0c-9.8541565 0 -17.84253 -8.270386 -17.84253 -18.472443z" fill-rule="evenodd"/><path stroke="#595959" stroke-width="2.0" stroke-linejoin="round" stroke-linecap="butt" d="m446.1584 370.17584l0 0c0 -10.202026 7.988373 -18.472443 17.84253 -18.472443l0 0c4.7321167 0 9.270447 1.9461975 12.616547 5.4104614c3.3461304 3.464264 5.225952 8.162781 5.225952 13.061981l0 0c0 10.202057 -7.9883423 18.472443 -17.842499 18.472443l0 0c-9.8541565 0 -17.84253 -8.270386 -17.84253 -18.472443z" fill-rule="evenodd"/><path fill="#000000" fill-opacity="0.0" d="m235.76903 262.02628l35.685043 0l0 33.763794l-35.685043 0z" fill-rule="evenodd"/><path fill="#595959" d="m253.60841 284.82443q-1.09375 0 -1.90625 -0.421875q-0.8125 -0.4375 -1.265625 -1.203125q-0.4375 -0.78125 -0.4375 -1.828125l0 -5.09375q0 -1.046875 0.4375 -1.8125q0.4375 -0.765625 1.25 -1.203125q0.828125 -0.4375 1.921875 -0.4375q1.125 0 1.921875 0.4375q0.81248474 0.4375 1.2499847 1.203125q0.453125 0.765625 0.453125 1.8125l0 5.09375q0 1.046875 -0.453125 1.828125q-0.453125 0.765625 -1.2656097 1.203125q-0.796875 0.421875 -1.90625 0.421875zm0 -1.484375q0.90625 0 1.4375 -0.546875q0.53125 -0.546875 0.53125 -1.421875l0 -5.09375q0 -0.875 -0.53125 -1.421875q-0.53125 -0.546875 -1.4375 -0.546875q-0.890625 0 -1.4375 0.546875q-0.53125 0.546875 -0.53125 1.421875l0 5.09375q0 0.875 0.53125 1.421875q0.546875 0.546875 1.4375 0.546875zm0 -3.515625q-0.4375 0 -0.71875 -0.28125q-0.28125 -0.296875 -0.28125 -0.765625q0 -0.453125 0.28125 -0.71875q0.28125 -0.28125 0.71875 -0.28125q0.453125 0 0.734375 0.28125q0.28125 0.265625 0.28125 0.71875q0 0.46875 -0.28125 0.765625q-0.28125 0.28125 -0.734375 0.28125z" fill-rule="nonzero"/><path fill="#000000" fill-opacity="0.0" d="m235.77255 278.89764l0 0c0 -10.202057 7.988373 -18.472443 17.84253 -18.472443l0 0c4.7321167 0 9.270447 1.9461975 12.616577 5.4104614c3.3460999 3.4642334 5.225952 8.162781 5.225952 13.061981l0 0c0 10.202026 -7.988373 18.472443 -17.84253 18.472443l0 0c-9.8541565 0 -17.84253 -8.270416 -17.84253 -18.472443z" fill-rule="evenodd"/><path stroke="#595959" stroke-width="2.0" stroke-linejoin="round" stroke-linecap="butt" d="m235.77255 278.89764l0 0c0 -10.202057 7.988373 -18.472443 17.84253 -18.472443l0 0c4.7321167 0 9.270447 1.9461975 12.616577 5.4104614c3.3460999 3.4642334 5.225952 8.162781 5.225952 13.061981l0 0c0 10.202026 -7.988373 18.472443 -17.84253 18.472443l0 0c-9.8541565 0 -17.84253 -8.270416 -17.84253 -18.472443z" fill-rule="evenodd"/><path fill="#000000" fill-opacity="0.0" d="m331.91077 262.03677l35.685028 0l0 33.763794l-35.685028 0z" fill-rule="evenodd"/><path fill="#595959" d="m346.3439 284.67868l0 -1.53125l3.109375 0l0 -8.640625l-3.125 2.3125l0 -1.875l2.671875 -1.953125l2.171875 0l0 10.15625l2.515625 0l0 1.53125l-7.34375 0z" fill-rule="nonzero"/><path fill="#000000" fill-opacity="0.0" d="m331.9143 278.90814l0 0c0 -10.202057 7.9883423 -18.472443 17.842499 -18.472443l0 0c4.732147 0 9.270447 1.9461975 12.616577 5.4104614c3.3461304 3.4642334 5.225952 8.162781 5.225952 13.061981l0 0c0 10.202057 -7.988373 18.472443 -17.84253 18.472443l0 0c-9.8541565 0 -17.842499 -8.270386 -17.842499 -18.472443z" fill-rule="evenodd"/><path stroke="#595959" stroke-width="2.0" stroke-linejoin="round" stroke-linecap="butt" d="m331.9143 278.90814l0 0c0 -10.202057 7.9883423 -18.472443 17.842499 -18.472443l0 0c4.732147 0 9.270447 1.9461975 12.616577 5.4104614c3.3461304 3.4642334 5.225952 8.162781 5.225952 13.061981l0 0c0 10.202057 -7.988373 18.472443 -17.84253 18.472443l0 0c-9.8541565 0 -17.842499 -8.270386 -17.842499 -18.472443z" fill-rule="evenodd"/><path fill="#000000" fill-opacity="0.0" d="m560.42255 262.02628l35.68506 0l0 33.763794l-35.68506 0z" fill-rule="evenodd"/><path fill="#595959" d="m579.87134 284.66818l0 -2.4375l-5.234375 0l0 -2.59375l4.546875 -6.65625l1.90625 0l-4.796875 7.078125l0 0.625l3.578125 0l0 -2.734375l1.703125 0l0 6.71875l-1.703125 0z" fill-rule="nonzero"/><path fill="#000000" fill-opacity="0.0" d="m560.4261 278.89764l0 0c0 -10.202057 7.9884033 -18.472443 17.84253 -18.472443l0 0c4.7321167 0 9.270447 1.9461975 12.616577 5.4104614c3.3461304 3.4642334 5.225952 8.162781 5.225952 13.061981l0 0c0 10.202026 -7.9883423 18.472443 -17.84253 18.472443l0 0c-9.854126 0 -17.84253 -8.270416 -17.84253 -18.472443z" fill-rule="evenodd"/><path stroke="#595959" stroke-width="2.0" stroke-linejoin="round" stroke-linecap="butt" d="m560.4261 278.89764l0 0c0 -10.202057 7.9884033 -18.472443 17.84253 -18.472443l0 0c4.7321167 0 9.270447 1.9461975 12.616577 5.4104614c3.3461304 3.4642334 5.225952 8.162781 5.225952 13.061981l0 0c0 10.202026 -7.9883423 18.472443 -17.84253 18.472443l0 0c-9.854126 0 -17.84253 -8.270416 -17.84253 -18.472443z" fill-rule="evenodd"/><path fill="#000000" fill-opacity="0.0" d="m656.56433 262.02628l35.684998 0l0 33.763794l-35.684998 0z" fill-rule="evenodd"/><path fill="#595959" d="m674.37244 284.82443q-1.515625 0 -2.46875 -0.765625q-0.9375 -0.78125 -1.046875 -2.09375l1.703125 0q0.09375 0.640625 0.546875 1.0q0.46875 0.34375 1.28125 0.34375q0.921875 0 1.390625 -0.484375q0.46875 -0.5 0.46875 -1.375l0 -1.140625q0 -0.890625 -0.46875 -1.375q-0.453125 -0.484375 -1.375 -0.484375q-0.578125 0 -1.0 0.265625q-0.40625 0.25 -0.59375 0.71875l-1.71875 0l0.078125 -6.453125l6.375 0l0 1.578125l-4.71875 0l-0.03125 3.625l0.4375 0l-0.453125 0.421875q0 -0.75 0.59375 -1.1875q0.59375 -0.4375 1.578125 -0.4375q1.421875 0 2.21875 0.875q0.796875 0.875 0.796875 2.453125l0 1.140625q0 1.5625 -0.953125 2.46875q-0.9375 0.90625 -2.640625 0.90625z" fill-rule="nonzero"/><path fill="#000000" fill-opacity="0.0" d="m656.5678 278.89764l0 0c0 -10.202057 7.9884033 -18.472443 17.84253 -18.472443l0 0c4.7321167 0 9.270447 1.9461975 12.616577 5.4104614c3.3461304 3.4642334 5.225952 8.162781 5.225952 13.061981l0 0c0 10.202026 -7.9883423 18.472443 -17.84253 18.472443l0 0c-9.854126 0 -17.84253 -8.270416 -17.84253 -18.472443z" fill-rule="evenodd"/><path stroke="#595959" stroke-width="2.0" stroke-linejoin="round" stroke-linecap="butt" d="m656.5678 278.89764l0 0c0 -10.202057 7.9884033 -18.472443 17.84253 -18.472443l0 0c4.7321167 0 9.270447 1.9461975 12.616577 5.4104614c3.3461304 3.4642334 5.225952 8.162781 5.225952 13.061981l0 0c0 10.202026 -7.9883423 18.472443 -17.84253 18.472443l0 0c-9.854126 0 -17.84253 -8.270416 -17.84253 -18.472443z" fill-rule="evenodd"/><path fill="#000000" fill-opacity="0.0" d="m271.45407 278.90817l60.472443 0" fill-rule="evenodd"/><path stroke="#666666" stroke-width="2.0" stroke-linejoin="round" stroke-linecap="butt" d="m271.45407 278.90817l60.472443 0" fill-rule="evenodd"/><path fill="#000000" fill-opacity="0.0" d="m596.11115 278.89764l60.472412 0" fill-rule="evenodd"/><path stroke="#666666" stroke-width="2.0" stroke-linejoin="round" stroke-linecap="butt" d="m596.11115 278.89764l60.472412 0" fill-rule="evenodd"/><path fill="#000000" fill-opacity="0.0" d="m362.37338 265.84616l89.00787 -61.952774" fill-rule="evenodd"/><path stroke="#666666" stroke-width="2.0" stroke-linejoin="round" stroke-linecap="butt" d="m362.37338 265.84616l89.00787 -61.952774" fill-rule="evenodd"/><path fill="#000000" fill-opacity="0.0" d="m362.37338 291.97012l89.00787 65.13385" fill-rule="evenodd"/><path stroke="#666666" stroke-width="2.0" stroke-linejoin="round" stroke-linecap="butt" d="m362.37338 291.97012l89.00787 65.13385" fill-rule="evenodd"/><path fill="#000000" fill-opacity="0.0" d="m476.61877 203.88351l89.03937 61.95276" fill-rule="evenodd"/><path stroke="#666666" stroke-width="2.0" stroke-linejoin="round" stroke-linecap="butt" d="m476.61877 203.88351l89.03937 61.95276" fill-rule="evenodd"/><path fill="#000000" fill-opacity="0.0" d="m476.61746 357.11386l89.0394 -65.165344" fill-rule="evenodd"/><path stroke="#666666" stroke-width="2.0" stroke-linejoin="round" stroke-linecap="butt" d="m476.61746 357.11386l89.0394 -65.165344" fill-rule="evenodd"/><path fill="#000000" fill-opacity="0.0" d="m253.61508 260.4252c0 -34.80316 96.2677 -69.60631 192.53543 -69.60631" fill-rule="evenodd"/><path stroke="#0000ff" stroke-width="1.0" stroke-linejoin="round" stroke-linecap="butt" d="m253.61508 260.4252c0 -34.80316 96.2677 -69.60631 192.53543 -69.60631" fill-rule="evenodd"/><path fill="#000000" fill-opacity="0.0" d="m253.61508 297.3701c0 36.409454 96.2677 72.81888 192.53543 72.81888" fill-rule="evenodd"/><path stroke="#0000ff" stroke-width="1.0" stroke-linejoin="round" stroke-linecap="butt" d="m253.61508 297.3701c0 36.409454 96.2677 72.81888 192.53543 72.81888" fill-rule="evenodd"/><path fill="#000000" fill-opacity="0.0" d="m367.59933 278.90814c48.206635 0 72.31094 0.01574707 96.4133 0.03149414c24.102356 0.01574707 48.20282 0.03149414 96.40558 0.03149414" fill-rule="evenodd"/><path stroke="#0000ff" stroke-width="1.0" stroke-linejoin="round" stroke-linecap="butt" stroke-dasharray="4.0,3.0" d="m367.59933 278.90814c48.206635 0 72.31094 0.01574707 96.4133 0.03149414c24.102356 0.01574707 48.20282 0.03149414 96.40558 0.03149414" fill-rule="evenodd"/><path fill="#000000" fill-opacity="0.0" d="m481.8434 370.17584c96.28348 0 192.56693 -36.409424 192.56693 -72.81888" fill-rule="evenodd"/><path stroke="#0000ff" stroke-width="1.0" stroke-linejoin="round" stroke-linecap="butt" d="m481.8434 370.17584c96.28348 0 192.56693 -36.409424 192.56693 -72.81888" fill-rule="evenodd"/><path fill="#000000" fill-opacity="0.0" d="m481.84473 190.82152c96.28345 0 192.56696 34.803146 192.56696 69.60631" fill-rule="evenodd"/><path stroke="#0000ff" stroke-width="1.0" stroke-linejoin="round" stroke-linecap="butt" d="m481.84473 190.82152c96.28345 0 192.56696 34.803146 192.56696 69.60631" fill-rule="evenodd"/><path fill="#000000" fill-opacity="0.0" d="m253.61508 260.4252c0 -55.54068 81.165344 -111.08925 162.33072 -111.081375c81.165344 0.007873535 162.33069 55.57219 162.33069 111.14436" fill-rule="evenodd"/><path stroke="#6aa84f" stroke-width="4.0" stroke-linejoin="round" stroke-linecap="butt" stroke-dasharray="16.0,12.0" d="m253.61508 260.4252c0 -55.54068 81.165344 -111.08925 162.33072 -111.081375c81.165344 0.007873535 162.33069 55.57219 162.33069 111.14436" fill-rule="evenodd"/><path fill="#000000" fill-opacity="0.0" d="m349.7568 297.38058c0 57.654846 81.165375 115.30182 162.33072 115.30969c81.165344 0.007873535 162.33069 -57.623352 162.33069 -115.246704" fill-rule="evenodd"/><path stroke="#6aa84f" stroke-width="4.0" stroke-linejoin="round" stroke-linecap="butt" stroke-dasharray="16.0,12.0" d="m349.7568 297.38058c0 57.654846 81.165375 115.30182 162.33072 115.30969c81.165344 0.007873535 162.33069 -57.623352 162.33069 -115.246704" fill-rule="evenodd"/><path fill="#000000" fill-opacity="0.0" d="m373.3176 431.09973l181.38583 0l0 79.46457l-181.38583 0z" fill-rule="evenodd"/><path fill="#595959" d="m387.01382 479.47202l0 -2.203125l5.359375 -5.6875q1.359375 -1.46875 1.984375 -2.609375q0.625 -1.140625 0.625 -2.203125q0 -1.453125 -0.8125 -2.296875q-0.796875 -0.84375 -2.1875 -0.84375q-1.53125 0 -2.40625 0.875q-0.875 0.859375 -0.875 2.375l-2.15625 0q0.046875 -1.59375 0.71875 -2.75q0.6875 -1.171875 1.890625 -1.796875q1.21875 -0.625 2.828125 -0.625q1.59375 0 2.75 0.625q1.171875 0.609375 1.796875 1.734375q0.625 1.125 0.625 2.6875q0 1.484375 -0.796875 2.953125q-0.796875 1.46875 -2.59375 3.328125l-4.328125 4.46875l8.0 0l0 1.96875l-10.421875 0zm28.831177 0l0 -17.515625l2.15625 0l0 7.484375l5.625 0l0 -7.484375l2.15625 0l0 17.515625l-2.15625 0l0 -8.0625l-5.625 0l0 8.0625l-2.15625 0zm19.368713 0.1875q-1.59375 0 -2.75 -0.59375q-1.140625 -0.609375 -1.78125 -1.734375q-0.625 -1.140625 -0.625 -2.703125l0 -3.515625q0 -1.578125 0.625 -2.703125q0.640625 -1.125 1.78125 -1.71875q1.15625 -0.609375 2.75 -0.609375q1.578125 0 2.734375 0.609375q1.15625 0.59375 1.78125 1.71875q0.640625 1.125 0.640625 2.6875l0 3.53125q0 1.5625 -0.640625 2.703125q-0.625 1.125 -1.78125 1.734375q-1.15625 0.59375 -2.734375 0.59375zm0 -1.921875q1.40625 0 2.203125 -0.78125q0.796875 -0.796875 0.796875 -2.328125l0 -3.515625q0 -1.53125 -0.796875 -2.3125q-0.796875 -0.796875 -2.203125 -0.796875q-1.390625 0 -2.203125 0.796875q-0.796875 0.78125 -0.796875 2.3125l0 3.515625q0 1.53125 0.796875 2.328125q0.8125 0.78125 2.203125 0.78125zm9.399963 6.046875l0 -17.515625l2.171875 0l0 2.515625l0.421875 0l-0.421875 0.515625q0 -1.515625 0.984375 -2.390625q1.0 -0.875 2.625 -0.875q2.0 0 3.1875 1.3125q1.1875 1.296875 1.1875 3.578125l0 3.859375q0 1.515625 -0.546875 2.625q-0.53125 1.109375 -1.5 1.703125q-0.96875 0.59375 -2.328125 0.59375q-1.59375 0 -2.609375 -0.875q-1.0 -0.890625 -1.0 -2.390625l0.421875 0.515625l-0.484375 0l0.0625 3.0l0 3.828125l-2.171875 0zm5.0625 -5.9375q1.375 0 2.15625 -0.8125q0.78125 -0.828125 0.78125 -2.359375l0 -3.609375q0 -1.53125 -0.78125 -2.34375q-0.78125 -0.8125 -2.15625 -0.8125q-1.3125 0 -2.109375 0.84375q-0.78125 0.828125 -0.78125 2.3125l0 3.609375q0 1.484375 0.78125 2.328125q0.796875 0.84375 2.109375 0.84375zm23.737427 1.625l0 -17.515625l5.640625 0q1.640625 0 2.828125 0.640625q1.203125 0.625 1.859375 1.78125q0.671875 1.15625 0.671875 2.734375q0 1.5625 -0.671875 2.734375q-0.65625 1.15625 -1.859375 1.796875q-1.1875 0.625 -2.828125 0.625l-3.46875 0l0 7.203125l-2.171875 0zm2.171875 -9.140625l3.46875 0q1.421875 0 2.265625 -0.875q0.859375 -0.875 0.859375 -2.34375q0 -1.484375 -0.859375 -2.34375q-0.84375 -0.875 -2.265625 -0.875l-3.46875 0l0 6.4375zm16.071838 9.375q-2.09375 0 -3.296875 -1.0625q-1.1875 -1.0625 -1.1875 -2.890625q0 -1.84375 1.1875 -2.90625q1.203125 -1.0625 3.25 -1.0625l4.078125 0l0 -1.3125q0 -1.21875 -0.734375 -1.875q-0.734375 -0.671875 -2.078125 -0.671875q-1.171875 0 -1.96875 0.5q-0.78125 0.484375 -0.90625 1.328125l-2.15625 0q0.21875 -1.703125 1.609375 -2.703125q1.390625 -1.015625 3.46875 -1.015625q2.28125 0 3.59375 1.171875q1.328125 1.171875 1.328125 3.1875l0 9.078125l-2.109375 0l0 -2.515625l-0.359375 0l0.359375 -0.359375q0 1.4375 -1.125 2.28125q-1.109375 0.828125 -2.953125 0.828125zm0.53125 -1.703125q1.53125 0 2.515625 -0.765625q0.984375 -0.765625 0.984375 -1.96875l0 -1.875l-4.03125 0q-1.078125 0 -1.703125 0.609375q-0.625 0.59375 -0.625 1.625q0 1.109375 0.75 1.75q0.765625 0.625 2.109375 0.625zm16.462463 1.46875q-1.703125 0 -2.65625 -0.90625q-0.9375 -0.921875 -0.9375 -2.578125l0 -7.75l-3.734375 0l0 -1.96875l3.734375 0l0 -3.71875l2.15625 0l0 3.71875l5.2812805 0l0 1.96875l-5.2812805 0l0 7.75q0 1.515625 1.4375 1.515625l3.5937805 0l0 1.96875l-3.5937805 0zm7.962494 0l0 -17.515625l2.171875 0l0 4.3125l0 2.515625l0.453125 0l-0.453125 0.515625q0 -1.5625 0.921875 -2.40625q0.9375 -0.859375 2.59375 -0.859375q2.0 0 3.171875 1.234375q1.171875 1.21875 1.171875 3.328125l0 8.875l-2.15625 0l0 -8.640625q0 -1.421875 -0.765625 -2.1875q-0.75 -0.78125 -2.046875 -0.78125q-1.34375 0 -2.125 0.84375q-0.765625 0.828125 -0.765625 2.359375l0 8.40625l-2.171875 0zm18.993713 0.1875q-1.34375 0 -2.34375 -0.40625q-1.0 -0.421875 -1.59375 -1.1875q-0.578125 -0.78125 -0.703125 -1.828125l2.15625 0q0.15625 0.6875 0.78125 1.09375q0.640625 0.40625 1.703125 0.40625l1.0 0q1.28125 0 1.890625 -0.515625q0.625 -0.515625 0.625 -1.375q0 -0.84375 -0.5625 -1.328125q-0.5625 -0.5 -1.65625 -0.65625l-1.78125 -0.296875q-1.9375 -0.328125 -2.890625 -1.203125q-0.953125 -0.875 -0.953125 -2.5625q0 -1.78125 1.125 -2.75q1.140625 -0.96875 3.390625 -0.96875l0.90625 0q1.90625 0 3.046875 0.890625q1.15625 0.890625 1.40625 2.390625l-2.171875 0q-0.140625 -0.625 -0.71875 -0.984375q-0.578125 -0.375 -1.5625 -0.375l-0.90625 0q-1.21875 0 -1.796875 0.453125q-0.5625 0.453125 -0.5625 1.375q0 0.8125 0.484375 1.203125q0.484375 0.375 1.515625 0.546875l1.78125 0.28125q2.125 0.34375 3.09375 1.25q0.984375 0.90625 0.984375 2.640625q0 1.828125 -1.171875 2.875q-1.15625 1.03125 -3.515625 1.03125l-1.0 0z" fill-rule="nonzero"/></g></svg>